<svg xmlns="http://www.w3.org/2000/svg" xmlns:xlink="http://www.w3.org/1999/xlink" width="705" viewBox="0 0 705 591" height="591" version="1.0"><defs><clipPath id="d"><path d="M 1.105469 0.605469 L 202 0.605469 L 202 201 L 1.105469 201 Z M 1.105469 0.605469"/></clipPath><clipPath id="e"><path d="M 1.105469 0.605469 L 219 0.605469 L 219 219 L 1.105469 219 Z M 1.105469 0.605469"/></clipPath><clipPath id="f"><path d="M 190 189 L 421.890625 189 L 421.890625 421 L 190 421 Z M 190 189"/></clipPath><clipPath id="g"><path d="M 206 205 L 421.890625 205 L 421.890625 421.394531 L 206 421.394531 Z M 206 205"/></clipPath><clipPath id="h"><path d="M 223 223 L 421.890625 223 L 421.890625 421.394531 L 223 421.394531 Z M 223 223"/></clipPath><clipPath id="c"><path d="M0 0H424V424H0z"/></clipPath><filter x="0%" y="0%" width="100%" xmlns:xlink="http://www.w3.org/1999/xlink" xlink:type="simple" xlink:actuate="onLoad" height="100%" id="a" xlink:show="other"><feColorMatrix values="0 0 0 0 1 0 0 0 0 1 0 0 0 0 1 0 0 0 1 0" color-interpolation-filters="sRGB"/></filter><mask id="b"><g filter="url(#a)"><path fill-opacity=".349" d="M-70.5 -59.1H775.5V650.1H-70.5z"/></g></mask></defs><g mask="url(#b)"><g><g clip-path="url(#c)" transform="translate(141 84)"><path fill="#FFF" d="M 94.449219 36.085938 L 36.585938 93.949219 C 34.753906 96.675781 32.984375 99.449219 31.28125 102.269531 L 102.773438 30.78125 C 99.949219 32.488281 97.175781 34.257812 94.449219 36.085938 Z M 94.449219 36.085938"/><path fill="#FFF" d="M 131.292969 16.390625 L 16.886719 130.789062 C 16.203125 132.449219 15.539062 134.117188 14.898438 135.796875 L 136.296875 14.402344 C 134.617188 15.042969 132.949219 15.707031 131.292969 16.390625 Z M 131.292969 16.390625"/><path fill="#FFF" d="M 157.183594 7.640625 L 8.140625 156.683594 C 7.78125 158.027344 7.4375 159.382812 7.105469 160.738281 L 161.238281 6.609375 C 159.882812 6.941406 158.53125 7.28125 157.183594 7.640625 Z M 157.183594 7.640625"/><path fill="#FFF" d="M 178.910156 3.066406 L 3.5625 178.40625 C 3.382812 179.578125 3.222656 180.753906 3.058594 181.933594 L 182.433594 2.5625 C 181.257812 2.722656 180.078125 2.886719 178.910156 3.066406 Z M 178.910156 3.066406"/><g clip-path="url(#d)"><path fill="#FFF" d="M 198.136719 0.988281 L 1.484375 197.632812 C 1.417969 198.699219 1.351562 199.765625 1.300781 200.835938 L 201.339844 0.800781 C 200.269531 0.855469 199.203125 0.921875 198.136719 0.988281 Z M 198.136719 0.988281"/></g><g clip-path="url(#e)"><path fill="#FFF" d="M 215.664062 0.609375 L 1.105469 215.160156 C 1.125 216.140625 1.148438 217.121094 1.183594 218.097656 L 218.601562 0.6875 C 217.625 0.65625 216.644531 0.628906 215.664062 0.609375 Z M 215.664062 0.609375"/></g><path fill="#FFF" d="M 231.875 1.542969 L 2.039062 231.371094 C 2.125 232.285156 2.222656 233.195312 2.324219 234.105469 L 234.609375 1.824219 C 233.699219 1.726562 232.789062 1.628906 231.875 1.542969 Z M 231.875 1.542969"/><path fill="#FFF" d="M 247.007812 3.554688 L 4.050781 246.507812 C 4.195312 247.363281 4.34375 248.222656 4.5 249.074219 L 249.578125 4.003906 C 248.726562 3.847656 247.867188 3.703125 247.007812 3.554688 Z M 247.007812 3.554688"/><path fill="#FFF" d="M 261.226562 6.484375 L 6.980469 260.722656 C 7.175781 261.53125 7.367188 262.34375 7.570312 263.148438 L 263.652344 7.078125 C 262.847656 6.871094 262.035156 6.679688 261.226562 6.484375 Z M 261.226562 6.484375"/><path fill="#FFF" d="M 274.652344 10.207031 L 10.703125 274.148438 C 10.941406 274.910156 11.191406 275.667969 11.441406 276.425781 L 276.929688 10.945312 C 276.171875 10.699219 275.414062 10.445312 274.652344 10.207031 Z M 274.652344 10.207031"/><path fill="#FFF" d="M 287.347656 14.65625 L 15.152344 286.84375 C 15.433594 287.566406 15.714844 288.292969 16 289.011719 L 289.515625 15.507812 C 288.796875 15.21875 288.070312 14.9375 287.347656 14.65625 Z M 287.347656 14.65625"/><path fill="#FFF" d="M 299.398438 19.757812 L 20.25 298.894531 C 20.566406 299.582031 20.886719 300.265625 21.210938 300.949219 L 301.453125 20.71875 C 300.769531 20.390625 300.082031 20.074219 299.398438 19.757812 Z M 299.398438 19.757812"/><path fill="#FFF" d="M 310.847656 25.457031 L 25.949219 310.34375 C 26.300781 310.996094 26.65625 311.644531 27.011719 312.296875 L 312.800781 26.519531 C 312.148438 26.160156 311.5 25.804688 310.847656 25.457031 Z M 310.847656 25.457031"/><path fill="#FFF" d="M 321.726562 31.722656 L 32.214844 321.222656 C 32.597656 321.84375 32.984375 322.460938 33.375 323.078125 L 323.582031 32.882812 C 322.964844 32.492188 322.347656 32.105469 321.726562 31.722656 Z M 321.726562 31.722656"/><path fill="#FFF" d="M 332.070312 38.523438 L 39.015625 331.566406 C 39.433594 332.15625 39.847656 332.753906 40.265625 333.335938 L 333.839844 39.769531 C 333.253906 39.351562 332.664062 38.9375 332.070312 38.523438 Z M 332.070312 38.523438"/><path fill="#FFF" d="M 341.902344 45.839844 L 46.332031 341.398438 C 46.773438 341.960938 47.226562 342.511719 47.679688 343.070312 L 343.574219 47.1875 C 343.015625 46.734375 342.460938 46.285156 341.902344 45.839844 Z M 341.902344 45.839844"/><path fill="#FFF" d="M 351.222656 53.667969 L 54.15625 350.71875 C 54.632812 351.25 55.097656 351.789062 55.578125 352.316406 L 352.820312 55.085938 C 352.296875 54.609375 351.753906 54.140625 351.222656 53.667969 Z M 351.222656 53.667969"/><path fill="#FFF" d="M 360.0625 61.972656 L 62.46875 359.558594 C 62.964844 360.0625 63.480469 360.558594 63.988281 361.054688 L 361.558594 63.496094 C 361.058594 62.988281 360.566406 62.476562 360.0625 61.972656 Z M 360.0625 61.972656"/><path fill="#FFF" d="M 368.394531 70.785156 L 71.28125 367.890625 C 71.8125 368.367188 72.34375 368.839844 72.878906 369.308594 L 369.8125 72.386719 C 369.34375 71.847656 368.871094 71.316406 368.394531 70.785156 Z M 368.394531 70.785156"/><path fill="#FFF" d="M 376.246094 80.085938 L 80.578125 375.738281 C 81.136719 376.1875 81.699219 376.632812 82.261719 377.070312 L 377.574219 81.773438 C 377.136719 81.207031 376.691406 80.644531 376.246094 80.085938 Z M 376.246094 80.085938"/><path fill="#FFF" d="M 383.589844 89.886719 L 90.375 383.085938 C 90.96875 383.503906 91.566406 383.914062 92.160156 384.320312 L 384.828125 91.667969 C 384.417969 91.074219 384.007812 90.476562 383.589844 89.886719 Z M 383.589844 89.886719"/><path fill="#FFF" d="M 390.414062 100.207031 L 100.699219 389.914062 C 101.320312 390.296875 101.933594 390.6875 102.5625 391.066406 L 391.570312 102.070312 C 391.191406 101.445312 390.800781 100.828125 390.414062 100.207031 Z M 390.414062 100.207031"/><path fill="#FFF" d="M 396.714844 111.054688 L 111.542969 396.214844 C 112.199219 396.5625 112.859375 396.90625 113.519531 397.253906 L 397.757812 113.027344 C 397.410156 112.367188 397.070312 111.707031 396.714844 111.054688 Z M 396.714844 111.054688"/><path fill="#FFF" d="M 402.4375 122.476562 L 122.96875 401.9375 C 123.652344 402.253906 124.335938 402.582031 125.027344 402.890625 L 403.398438 124.539062 C 403.085938 123.847656 402.757812 123.164062 402.4375 122.476562 Z M 402.4375 122.476562"/><path fill="#FFF" d="M 407.574219 134.488281 L 134.980469 407.070312 C 135.707031 407.355469 136.4375 407.625 137.164062 407.90625 L 408.40625 136.675781 C 408.128906 135.945312 407.859375 135.214844 407.574219 134.488281 Z M 407.574219 134.488281"/><path fill="#FFF" d="M 412.050781 147.160156 L 147.648438 411.550781 C 148.414062 411.792969 149.179688 412.035156 149.949219 412.269531 L 412.769531 149.457031 C 412.535156 148.691406 412.292969 147.921875 412.050781 147.160156 Z M 412.050781 147.160156"/><path fill="#FFF" d="M 415.816406 160.539062 L 161.027344 415.316406 C 161.835938 415.515625 162.644531 415.71875 163.453125 415.90625 L 416.410156 162.964844 C 416.21875 162.152344 416.015625 161.347656 415.816406 160.539062 Z M 415.816406 160.539062"/><path fill="#FFF" d="M 418.792969 174.710938 L 175.199219 418.289062 C 176.058594 418.4375 176.925781 418.582031 177.789062 418.71875 L 419.222656 177.300781 C 419.085938 176.433594 418.941406 175.570312 418.792969 174.710938 Z M 418.792969 174.710938"/><g clip-path="url(#f)"><path fill="#FFF" d="M 420.863281 189.789062 L 190.28125 420.359375 C 191.203125 420.453125 192.125 420.523438 193.050781 420.605469 L 421.105469 192.558594 C 421.027344 191.636719 420.953125 190.710938 420.863281 189.789062 Z M 420.863281 189.789062"/></g><g clip-path="url(#g)"><path fill="#FFF" d="M 421.855469 205.941406 L 206.433594 421.355469 C 207.421875 421.378906 208.417969 421.382812 209.410156 421.390625 L 421.890625 208.925781 C 421.882812 207.925781 421.878906 206.929688 421.855469 205.941406 Z M 421.855469 205.941406"/></g><g clip-path="url(#h)"><path fill="#FFF" d="M 421.339844 226.617188 C 421.417969 225.546875 421.480469 224.46875 421.546875 223.394531 L 223.886719 421.042969 C 224.960938 420.980469 226.039062 420.917969 227.109375 420.839844 Z M 421.339844 226.617188"/></g><path fill="#FFF" d="M 246.617188 418.480469 L 418.984375 246.125 C 419.183594 244.925781 419.386719 243.730469 419.566406 242.523438 L 243.015625 419.0625 C 244.21875 418.882812 245.417969 418.6875 246.617188 418.480469 Z M 246.617188 418.480469"/><path fill="#FFF" d="M 268.703125 413.539062 L 414.039062 268.210938 C 414.425781 266.839844 414.796875 265.460938 415.15625 264.078125 L 264.566406 414.65625 C 265.953125 414.300781 267.332031 413.925781 268.703125 413.539062 Z M 268.703125 413.539062"/><path fill="#FFF" d="M 295.378906 404.011719 L 404.511719 294.890625 C 405.261719 293.167969 405.988281 291.433594 406.691406 289.6875 L 290.179688 406.195312 C 291.925781 405.492188 293.65625 404.761719 295.378906 404.011719 Z M 295.378906 404.011719"/><path fill="#FFF" d="M 335.679688 380.859375 L 381.355469 335.191406 C 383.6875 332.007812 385.9375 328.753906 388.089844 325.4375 L 325.929688 387.59375 C 329.246094 385.4375 332.496094 383.191406 335.679688 380.859375 Z M 335.679688 380.859375"/></g></g></g></svg>