<?xml version="1.0" encoding="UTF-8"?>
<svg width="300px" height="300px" viewBox="0 0 300 300" version="1.1" xmlns="http://www.w3.org/2000/svg" xmlns:xlink="http://www.w3.org/1999/xlink">
    <!-- Generator: Sketch 52.6 (67491) - http://www.bohemiancoding.com/sketch -->
    <title>Orange Halftone Restaurant Food App Facebook Post (400 × 400px)</title>
    <desc>Created with Sketch.</desc>
    <g id="Page-1" stroke="none" stroke-width="1" fill="none" fill-rule="evenodd">
        <g id="Orange-Halftone-Restaurant-Food-App-Facebook-Post-(400-×-400px)" fill="#000000">
            <path d="M66.550781,25.296875 L25.296875,66.546875 C23.992188,68.496094 22.730469,70.472656 21.515625,72.480469 L72.484375,21.515625 C70.472656,22.730469 68.496094,23.992188 66.550781,25.296875 Z" id="Path"></path>
            <path d="M92.816406,11.253906 L11.253906,92.816406 C10.765625,93.996094 10.292969,95.1875 9.832031,96.386719 L96.386719,9.835938 C95.1875,10.292969 94,10.765625 92.816406,11.253906 Z" id="Path"></path>
            <path d="M111.277344,5.015625 L5.015625,111.277344 C4.761719,112.234375 4.515625,113.199219 4.28125,114.164062 L114.167969,4.28125 C113.199219,4.515625 112.238281,4.761719 111.277344,5.015625 Z" id="Path"></path>
            <path d="M126.765625,1.753906 L1.753906,126.761719 C1.625,127.597656 1.507812,128.4375 1.394531,129.277344 L129.277344,1.394531 C128.441406,1.511719 127.597656,1.625 126.765625,1.753906 Z" id="Path"></path>
            <path d="M140.472656,0.273438 L0.273438,140.472656 C0.222656,141.230469 0.175781,141.992188 0.140625,142.753906 L142.757812,0.140625 C141.992188,0.175781 141.234375,0.226562 140.472656,0.273438 Z" id="Path"></path>
            <path d="M152.96875,0.00390625 L0,152.96875 C0.015625,153.667969 0.03125,154.363281 0.0546875,155.0625 L155.0625,0.0585938 C154.367188,0.0351562 153.667969,0.015625 152.96875,0.00390625 Z" id="Path"></path>
            <path d="M164.527344,0.667969 L0.667969,164.523438 C0.730469,165.175781 0.796875,165.824219 0.867188,166.472656 L166.476562,0.871094 C165.828125,0.800781 165.179688,0.730469 164.527344,0.667969 Z" id="Path"></path>
            <path d="M175.316406,2.101562 L2.101562,175.316406 C2.203125,175.925781 2.308594,176.539062 2.421875,177.144531 L177.148438,2.421875 C176.542969,2.3125 175.929688,2.207031 175.316406,2.101562 Z" id="Path"></path>
            <path d="M185.453125,4.191406 L4.191406,185.449219 C4.328125,186.027344 4.464844,186.605469 4.609375,187.179688 L187.183594,4.613281 C186.609375,4.46875 186.03125,4.332031 185.453125,4.191406 Z" id="Path"></path>
            <path d="M195.023438,6.847656 L6.84375,195.019531 C7.011719,195.5625 7.191406,196.105469 7.371094,196.644531 L196.648438,7.371094 C196.109375,7.195312 195.570312,7.015625 195.023438,6.847656 Z" id="Path"></path>
            <path d="M204.078125,10.019531 L10.015625,204.074219 C10.214844,204.589844 10.417969,205.105469 10.621094,205.621094 L205.621094,10.625 C205.109375,10.417969 204.59375,10.21875 204.078125,10.019531 Z" id="Path"></path>
            <path d="M212.667969,13.652344 L13.648438,212.664062 C13.875,213.15625 14.105469,213.644531 14.335938,214.128906 L214.132812,14.339844 C213.644531,14.109375 213.15625,13.878906 212.667969,13.652344 Z" id="Path"></path>
            <path d="M220.832031,17.71875 L17.714844,220.828125 C17.964844,221.292969 18.21875,221.757812 18.472656,222.21875 L222.222656,18.476562 C221.757812,18.21875 221.296875,17.96875 220.832031,17.71875 Z" id="Path"></path>
            <path d="M228.585938,22.183594 L22.179688,228.585938 C22.453125,229.027344 22.730469,229.46875 23.007812,229.90625 L229.910156,23.011719 C229.472656,22.734375 229.03125,22.457031 228.585938,22.183594 Z" id="Path"></path>
            <path d="M235.960938,27.035156 L27.03125,235.957031 C27.328125,236.378906 27.621094,236.804688 27.917969,237.21875 L237.222656,27.921875 C236.804688,27.625 236.382812,27.332031 235.960938,27.035156 Z" id="Path"></path>
            <path d="M242.972656,32.25 L32.246094,242.96875 C32.5625,243.371094 32.882812,243.761719 33.203125,244.160156 L244.164062,33.210938 C243.765625,32.890625 243.371094,32.566406 242.972656,32.25 Z" id="Path"></path>
            <path d="M249.617188,37.832031 L37.824219,249.613281 C38.164062,249.992188 38.496094,250.375 38.835938,250.753906 L250.757812,38.839844 C250.378906,38.5 249.996094,38.167969 249.617188,37.832031 Z" id="Path"></path>
            <path d="M255.917969,43.753906 L43.75,255.914062 C44.105469,256.273438 44.472656,256.628906 44.832031,256.980469 L256.984375,44.835938 C256.628906,44.476562 256.277344,44.109375 255.917969,43.753906 Z" id="Path"></path>
            <path d="M261.859375,50.035156 L50.03125,261.855469 C50.410156,262.195312 50.789062,262.535156 51.171875,262.867188 L262.871094,51.175781 C262.535156,50.792969 262.199219,50.414062 261.859375,50.035156 Z" id="Path"></path>
            <path d="M267.457031,56.667969 L56.660156,267.453125 C57.058594,267.769531 57.460938,268.085938 57.863281,268.398438 L268.40625,57.867188 C268.089844,57.464844 267.773438,57.066406 267.457031,56.667969 Z" id="Path"></path>
            <path d="M272.691406,63.652344 L63.648438,272.6875 C64.066406,272.984375 64.492188,273.277344 64.917969,273.570312 L273.574219,64.925781 C273.28125,64.5 272.988281,64.074219 272.691406,63.652344 Z" id="Path"></path>
            <path d="M277.558594,71.011719 L71.007812,277.554688 C71.449219,277.828125 71.886719,278.109375 72.332031,278.378906 L278.382812,72.339844 C278.113281,71.894531 277.832031,71.453125 277.558594,71.011719 Z" id="Path"></path>
            <path d="M282.050781,78.746094 L78.738281,282.046875 C79.203125,282.296875 79.675781,282.542969 80.144531,282.789062 L282.792969,80.148438 C282.546875,79.683594 282.304688,79.210938 282.050781,78.746094 Z" id="Path"></path>
            <path d="M286.128906,86.890625 L86.882812,286.128906 C87.371094,286.351562 87.859375,286.589844 88.351562,286.808594 L286.8125,88.359375 C286.589844,87.863281 286.355469,87.378906 286.128906,86.890625 Z" id="Path"></path>
            <path d="M289.792969,95.453125 L95.445312,289.789062 C95.964844,289.992188 96.484375,290.183594 97.003906,290.382812 L290.386719,97.011719 C290.1875,96.492188 289.996094,95.96875 289.792969,95.453125 Z" id="Path"></path>
            <path d="M292.984375,104.484375 L104.480469,292.984375 C105.023438,293.15625 105.570312,293.328125 106.117188,293.496094 L293.496094,106.125 C293.328125,105.578125 293.15625,105.03125 292.984375,104.484375 Z" id="Path"></path>
            <path d="M295.667969,114.027344 L114.015625,295.667969 C114.59375,295.808594 115.167969,295.953125 115.746094,296.089844 L296.089844,115.753906 C295.953125,115.175781 295.808594,114.601562 295.667969,114.027344 Z" id="Path"></path>
            <path d="M297.792969,124.128906 L124.121094,297.789062 C124.734375,297.894531 125.351562,297.996094 125.96875,298.09375 L298.097656,125.972656 C297.996094,125.359375 297.898438,124.742188 297.792969,124.128906 Z" id="Path"></path>
            <path d="M299.265625,134.878906 L134.871094,299.265625 C135.53125,299.328125 136.1875,299.378906 136.847656,299.4375 L299.441406,136.855469 C299.382812,136.195312 299.332031,135.535156 299.265625,134.878906 Z" id="Path"></path>
            <path d="M299.972656,146.394531 L146.386719,299.972656 C147.09375,299.988281 147.804688,299.992188 148.511719,300 L300,148.519531 C299.992188,147.808594 299.988281,147.101562 299.972656,146.394531 Z" id="Path"></path>
            <path d="M299.609375,161.136719 C299.664062,160.371094 299.707031,159.605469 299.753906,158.835938 L158.832031,299.75 C159.597656,299.707031 160.367188,299.660156 161.128906,299.605469 L299.609375,161.136719 Z" id="Path"></path>
            <path d="M175.035156,297.925781 L297.925781,175.042969 C298.070312,174.1875 298.210938,173.335938 298.34375,172.476562 L172.46875,298.339844 C173.328125,298.210938 174.183594,298.070312 175.035156,297.925781 Z" id="Path"></path>
            <path d="M190.785156,294.398438 L294.398438,190.789062 C294.675781,189.8125 294.941406,188.828125 295.199219,187.84375 L187.835938,295.199219 C188.824219,294.945312 189.808594,294.675781 190.785156,294.398438 Z" id="Path"></path>
            <path d="M209.800781,287.609375 L287.609375,209.808594 C288.144531,208.582031 288.660156,207.347656 289.164062,206.101562 L206.097656,289.164062 C207.339844,288.664062 208.574219,288.140625 209.800781,287.609375 Z" id="Path"></path>
            <path d="M238.535156,271.101562 L271.101562,238.542969 C272.761719,236.273438 274.363281,233.953125 275.898438,231.589844 L231.585938,275.902344 C233.949219,274.367188 236.265625,272.765625 238.535156,271.101562 Z" id="Path"></path>
        </g>
    </g>
</svg>