<svg width="488" height="423" viewBox="0 0 488 423" fill="none" xmlns="http://www.w3.org/2000/svg">
<path opacity="0.2" fill-rule="evenodd" clip-rule="evenodd" d="M225.527 2.59782C269.39 9.62494 293.136 51.2804 325.407 79.4515C352.521 103.121 384.189 122.379 398.918 153.959C414.629 187.644 424.379 226.557 409.954 260.724C395.806 294.232 357.226 311.107 324.341 330.591C293.41 348.918 262.336 369.65 225.527 369.996C188.523 370.344 158.561 347.233 125.233 332.463C82.7378 313.63 21.4444 312.052 3.96574 271.804C-13.3667 231.893 30.7529 192.718 47.0544 152.442C62.445 114.417 64.0496 70.1768 96.6526 42.8035C130.977 13.9852 179.712 -4.74214 225.527 2.59782Z" fill="white"/>
<path opacity="0.1" fill-rule="evenodd" clip-rule="evenodd" d="M296.527 1.83165C340.39 9.88712 364.136 57.6385 396.407 89.9322C423.521 117.065 455.189 139.142 469.918 175.343C485.629 213.958 495.379 258.565 480.954 297.732C466.806 336.144 428.226 355.488 395.341 377.824C364.41 398.832 333.336 422.599 296.527 422.996C259.523 423.394 229.561 396.901 196.233 379.969C153.738 358.38 92.4444 356.572 74.9657 310.434C57.6333 264.682 101.753 219.775 118.054 173.605C133.445 130.014 135.05 79.3002 167.653 47.9211C201.977 14.8855 250.712 -6.58245 296.527 1.83165Z" fill="white"/>
</svg>
