<?xml version="1.0" encoding="UTF-8"?>
<svg width="531px" height="524px" viewBox="0 0 531 524" version="1.1" xmlns="http://www.w3.org/2000/svg" xmlns:xlink="http://www.w3.org/1999/xlink">
    <!-- Generator: Sketch 52.6 (67491) - http://www.bohemiancoding.com/sketch -->
    <title>Path</title>
    <desc>Created with Sketch.</desc>
    <g id="Symbols" stroke="none" stroke-width="1" fill="none" fill-rule="evenodd" opacity="0.701381138">
        <g id="Path" transform="translate(-1.000000, 0.000000)" fill="#FFFFFF">
            <g transform="translate(1.000000, 0.000000)">
                <path d="M214.351562,1.027344 C214.351562,1.332031 214.589844,1.582031 214.894531,1.582031 C215.199219,1.582031 215.449219,1.332031 215.449219,1.027344 C215.449219,0.722656 215.199219,0.480469 214.894531,0.480469 C214.589844,0.480469 214.351562,0.722656 214.351562,1.027344 Z"></path>
                <path d="M187.980469,10.003906 C187.980469,10.503906 188.394531,10.917969 188.894531,10.917969 C189.402344,10.917969 189.804688,10.503906 189.804688,10.003906 C189.804688,9.496094 189.402344,9.082031 188.894531,9.082031 C188.394531,9.082031 187.980469,9.496094 187.980469,10.003906 Z"></path>
                <path d="M162.335938,18.972656 C162.335938,19.382812 162.667969,19.707031 163.070312,19.707031 C163.480469,19.707031 163.804688,19.382812 163.804688,18.972656 C163.804688,18.570312 163.480469,18.238281 163.070312,18.238281 C162.667969,18.238281 162.335938,18.570312 162.335938,18.972656 Z"></path>
                <path d="M136.523438,27.949219 C136.523438,28.253906 136.761719,28.496094 137.066406,28.496094 C137.371094,28.496094 137.621094,28.253906 137.621094,27.949219 C137.621094,27.648438 137.371094,27.394531 137.066406,27.394531 C136.761719,27.394531 136.523438,27.648438 136.523438,27.949219 Z"></path>
                <path d="M274.042969,9.082031 C274.042969,10.101562 274.867188,10.917969 275.878906,10.917969 C276.886719,10.917969 277.710938,10.101562 277.710938,9.082031 C277.710938,8.074219 276.886719,7.257812 275.878906,7.257812 C274.867188,7.257812 274.042969,8.074219 274.042969,9.082031 Z"></path>
                <path d="M247.128906,18.0625 C247.128906,19.582031 248.355469,20.804688 249.875,20.804688 C251.394531,20.804688 252.621094,19.582031 252.621094,18.0625 C252.621094,16.542969 251.394531,15.316406 249.875,15.316406 C248.355469,15.316406 247.128906,16.542969 247.128906,18.0625 Z"></path>
                <path d="M220.574219,27.039062 C220.574219,28.855469 222.050781,30.328125 223.875,30.328125 C225.6875,30.328125 227.164062,28.855469 227.164062,27.039062 C227.164062,25.214844 225.6875,23.738281 223.875,23.738281 C222.050781,23.738281 220.574219,25.214844 220.574219,27.039062 Z"></path>
                <path d="M194.203125,36.007812 C194.203125,38.027344 195.839844,39.671875 197.871094,39.671875 C199.890625,39.671875 201.527344,38.027344 201.527344,36.007812 C201.527344,33.984375 199.890625,32.339844 197.871094,32.339844 C195.839844,32.339844 194.203125,33.984375 194.203125,36.007812 Z"></path>
                <path d="M168.382812,44.984375 C168.382812,46.898438 169.945312,48.460938 171.859375,48.460938 C173.78125,48.460938 175.347656,46.898438 175.347656,44.984375 C175.347656,43.0625 173.78125,41.496094 171.859375,41.496094 C169.945312,41.496094 168.382812,43.0625 168.382812,44.984375 Z"></path>
                <path d="M142.933594,53.773438 C142.933594,55.492188 144.320312,56.886719 146.042969,56.886719 C147.761719,56.886719 149.15625,55.492188 149.15625,53.773438 C149.15625,52.046875 147.761719,50.652344 146.042969,50.652344 C144.320312,50.652344 142.933594,52.046875 142.933594,53.773438 Z"></path>
                <path d="M117.476562,62.742188 C117.476562,64.15625 118.621094,65.308594 120.042969,65.308594 C121.457031,65.308594 122.601562,64.15625 122.601562,62.742188 C122.601562,61.328125 121.457031,60.175781 120.042969,60.175781 C118.621094,60.175781 117.476562,61.328125 117.476562,62.742188 Z"></path>
                <path d="M92.386719,71.71875 C92.386719,72.625 93.128906,73.367188 94.03125,73.367188 C94.941406,73.367188 95.683594,72.625 95.683594,71.71875 C95.683594,70.808594 94.941406,70.066406 94.03125,70.066406 C93.128906,70.066406 92.386719,70.808594 92.386719,71.71875 Z"></path>
                <path d="M335.027344,17.148438 C335.027344,18.050781 335.769531,18.792969 336.671875,18.792969 C337.585938,18.792969 338.328125,18.050781 338.328125,17.148438 C338.328125,16.238281 337.585938,15.496094 336.671875,15.496094 C335.769531,15.496094 335.027344,16.238281 335.027344,17.148438 Z"></path>
                <path d="M307.558594,26.117188 C307.558594,27.835938 308.953125,29.230469 310.667969,29.230469 C312.394531,29.230469 313.78125,27.835938 313.78125,26.117188 C313.78125,24.402344 312.394531,23.007812 310.667969,23.007812 C308.953125,23.007812 307.558594,24.402344 307.558594,26.117188 Z"></path>
                <path d="M280.457031,35.09375 C280.457031,37.519531 282.421875,39.484375 284.855469,39.484375 C287.277344,39.484375 289.246094,37.519531 289.246094,35.09375 C289.246094,32.664062 287.277344,30.695312 284.855469,30.695312 C282.421875,30.695312 280.457031,32.664062 280.457031,35.09375 Z"></path>
                <path d="M253.542969,44.0625 C253.542969,46.996094 255.910156,49.375 258.84375,49.375 C261.777344,49.375 264.15625,46.996094 264.15625,44.0625 C264.15625,41.128906 261.777344,38.753906 258.84375,38.753906 C255.910156,38.753906 253.542969,41.128906 253.542969,44.0625 Z"></path>
                <path d="M226.796875,53.039062 C226.796875,56.375 229.507812,59.085938 232.839844,59.085938 C236.1875,59.085938 238.886719,56.375 238.886719,53.039062 C238.886719,49.695312 236.1875,46.996094 232.839844,46.996094 C229.507812,46.996094 226.796875,49.695312 226.796875,53.039062 Z"></path>
                <path d="M200.429688,62.007812 C200.429688,65.550781 203.296875,68.421875 206.839844,68.421875 C210.378906,68.421875 213.25,65.550781 213.25,62.007812 C213.25,58.46875 210.378906,55.597656 206.839844,55.597656 C203.296875,55.597656 200.429688,58.46875 200.429688,62.007812 Z"></path>
                <path d="M174.613281,70.800781 C174.613281,74.242188 177.394531,77.03125 180.835938,77.03125 C184.28125,77.03125 187.058594,74.242188 187.058594,70.800781 C187.058594,67.367188 184.28125,64.574219 180.835938,64.574219 C177.394531,64.574219 174.613281,67.367188 174.613281,70.800781 Z"></path>
                <path d="M148.96875,79.777344 C148.96875,83.011719 151.597656,85.632812 154.835938,85.632812 C158.070312,85.632812 160.691406,83.011719 160.691406,79.777344 C160.691406,76.539062 158.070312,73.910156 154.835938,73.910156 C151.597656,73.910156 148.96875,76.539062 148.96875,79.777344 Z"></path>
                <path d="M123.886719,88.746094 C123.886719,91.578125 126.175781,93.878906 129.011719,93.878906 C131.84375,93.878906 134.144531,91.578125 134.144531,88.746094 C134.144531,85.917969 131.84375,83.621094 129.011719,83.621094 C126.175781,83.621094 123.886719,85.917969 123.886719,88.746094 Z"></path>
                <path d="M98.976562,97.722656 C98.976562,99.949219 100.78125,101.746094 103.007812,101.746094 C105.234375,101.746094 107.042969,99.949219 107.042969,97.722656 C107.042969,95.496094 105.234375,93.691406 103.007812,93.691406 C100.78125,93.691406 98.976562,95.496094 98.976562,97.722656 Z"></path>
                <path d="M74.261719,106.691406 C74.261719,108.210938 75.484375,109.445312 77.007812,109.445312 C78.515625,109.445312 79.75,108.210938 79.75,106.691406 C79.75,105.179688 78.515625,103.945312 77.007812,103.945312 C75.484375,103.945312 74.261719,105.179688 74.261719,106.691406 Z"></path>
                <path d="M49.714844,115.667969 C49.714844,116.375 50.289062,116.945312 51.003906,116.945312 C51.710938,116.945312 52.28125,116.375 52.28125,115.667969 C52.28125,114.960938 51.710938,114.378906 51.003906,114.378906 C50.289062,114.378906 49.714844,114.960938 49.714844,115.667969 Z"></path>
                <path d="M369.640625,34.175781 C369.640625,35.292969 370.542969,36.195312 371.652344,36.195312 C372.769531,36.195312 373.664062,35.292969 373.664062,34.175781 C373.664062,33.066406 372.769531,32.164062 371.652344,32.164062 C370.542969,32.164062 369.640625,33.066406 369.640625,34.175781 Z"></path>
                <path d="M341.804688,43.152344 C341.804688,45.269531 343.523438,46.996094 345.648438,46.996094 C347.769531,46.996094 349.496094,45.269531 349.496094,43.152344 C349.496094,41.023438 347.769531,39.304688 345.648438,39.304688 C343.523438,39.304688 341.804688,41.023438 341.804688,43.152344 Z"></path>
                <path d="M314.148438,52.121094 C314.148438,55.160156 316.605469,57.617188 319.648438,57.617188 C322.679688,57.617188 325.136719,55.160156 325.136719,52.121094 C325.136719,49.089844 322.679688,46.628906 319.648438,46.628906 C316.605469,46.628906 314.148438,49.089844 314.148438,52.121094 Z"></path>
                <path d="M286.679688,61.097656 C286.679688,64.941406 289.800781,68.054688 293.644531,68.054688 C297.480469,68.054688 300.601562,64.941406 300.601562,61.097656 C300.601562,57.253906 297.480469,54.140625 293.644531,54.140625 C289.800781,54.140625 286.679688,57.253906 286.679688,61.097656 Z"></path>
                <path d="M259.765625,70.066406 C259.765625,74.519531 263.367188,78.121094 267.820312,78.121094 C272.273438,78.121094 275.878906,74.519531 275.878906,70.066406 C275.878906,65.621094 272.273438,62.007812 267.820312,62.007812 C263.367188,62.007812 259.765625,65.621094 259.765625,70.066406 Z"></path>
                <path d="M233.03125,79.042969 C233.03125,83.898438 236.964844,87.832031 241.820312,87.832031 C246.675781,87.832031 250.609375,83.898438 250.609375,79.042969 C250.609375,74.1875 246.675781,70.253906 241.820312,70.253906 C236.964844,70.253906 233.03125,74.1875 233.03125,79.042969 Z"></path>
                <path d="M206.660156,87.832031 C206.660156,92.886719 210.753906,96.988281 215.816406,96.988281 C220.867188,96.988281 224.972656,92.886719 224.972656,87.832031 C224.972656,82.773438 220.867188,78.675781 215.816406,78.675781 C210.753906,78.675781 206.660156,82.773438 206.660156,87.832031 Z"></path>
                <path d="M180.835938,96.800781 C180.835938,101.765625 184.851562,105.777344 189.804688,105.777344 C194.769531,105.777344 198.78125,101.765625 198.78125,96.800781 C198.78125,91.847656 194.769531,87.832031 189.804688,87.832031 C184.851562,87.832031 180.835938,91.847656 180.835938,96.800781 Z"></path>
                <path d="M155.199219,105.777344 C155.199219,110.535156 159.054688,114.378906 163.804688,114.378906 C168.558594,114.378906 172.414062,110.535156 172.414062,105.777344 C172.414062,101.023438 168.558594,97.167969 163.804688,97.167969 C159.054688,97.167969 155.199219,101.023438 155.199219,105.777344 Z"></path>
                <path d="M130.109375,114.746094 C130.109375,118.996094 133.554688,122.445312 137.800781,122.445312 C142.046875,122.445312 145.492188,118.996094 145.492188,114.746094 C145.492188,110.5 142.046875,107.058594 137.800781,107.058594 C133.554688,107.058594 130.109375,110.5 130.109375,114.746094 Z"></path>
                <path d="M105.386719,123.726562 C105.386719,127.363281 108.335938,130.316406 111.976562,130.316406 C115.625,130.316406 118.574219,127.363281 118.574219,123.726562 C118.574219,120.085938 115.625,117.136719 111.976562,117.136719 C108.335938,117.136719 105.386719,120.085938 105.386719,123.726562 Z"></path>
                <path d="M80.851562,132.691406 C80.851562,135.527344 83.148438,137.824219 85.976562,137.824219 C88.808594,137.824219 91.105469,135.527344 91.105469,132.691406 C91.105469,129.867188 88.808594,127.570312 85.976562,127.570312 C83.148438,127.570312 80.851562,129.867188 80.851562,132.691406 Z"></path>
                <path d="M56.492188,141.492188 C56.492188,143.40625 58.050781,144.96875 59.972656,144.96875 C61.894531,144.96875 63.449219,143.40625 63.449219,141.492188 C63.449219,139.570312 61.894531,138.003906 59.972656,138.003906 C58.050781,138.003906 56.492188,139.570312 56.492188,141.492188 Z"></path>
                <path d="M32.324219,150.460938 C32.324219,151.371094 33.058594,152.105469 33.96875,152.105469 C34.882812,152.105469 35.617188,151.371094 35.617188,150.460938 C35.617188,149.546875 34.882812,148.816406 33.96875,148.816406 C33.058594,148.816406 32.324219,149.546875 32.324219,150.460938 Z"></path>
                <path d="M404.796875,51.207031 C404.796875,52.21875 405.621094,53.039062 406.632812,53.039062 C407.640625,53.039062 408.464844,52.21875 408.464844,51.207031 C408.464844,50.199219 407.640625,49.375 406.632812,49.375 C405.621094,49.375 404.796875,50.199219 404.796875,51.207031 Z"></path>
                <path d="M376.597656,60.175781 C376.597656,62.402344 378.402344,64.210938 380.628906,64.210938 C382.847656,64.210938 384.652344,62.402344 384.652344,60.175781 C384.652344,57.957031 382.847656,56.152344 380.628906,56.152344 C378.402344,56.152344 376.597656,57.957031 376.597656,60.175781 Z"></path>
                <path d="M348.582031,69.152344 C348.582031,72.488281 351.28125,75.199219 354.617188,75.199219 C357.960938,75.199219 360.664062,72.488281 360.664062,69.152344 C360.664062,65.820312 357.960938,63.109375 354.617188,63.109375 C351.28125,63.109375 348.582031,65.820312 348.582031,69.152344 Z"></path>
                <path d="M320.925781,78.121094 C320.925781,82.371094 324.367188,85.820312 328.617188,85.820312 C332.863281,85.820312 336.304688,82.371094 336.304688,78.121094 C336.304688,73.875 332.863281,70.433594 328.617188,70.433594 C324.367188,70.433594 320.925781,73.875 320.925781,78.121094 Z"></path>
                <path d="M293.277344,87.101562 C293.277344,92.257812 297.453125,96.433594 302.613281,96.433594 C307.773438,96.433594 311.957031,92.257812 311.957031,87.101562 C311.957031,81.941406 307.773438,77.753906 302.613281,77.753906 C297.453125,77.753906 293.277344,81.941406 293.277344,87.101562 Z"></path>
                <path d="M265.988281,96.066406 C265.988281,101.941406 270.746094,106.691406 276.609375,106.691406 C282.476562,106.691406 287.234375,101.941406 287.234375,96.066406 C287.234375,90.203125 282.476562,85.453125 276.609375,85.453125 C270.746094,85.453125 265.988281,90.203125 265.988281,96.066406 Z"></path>
                <path d="M239.441406,104.867188 C239.441406,111.136719 244.519531,116.214844 250.789062,116.214844 C257.066406,116.214844 262.144531,111.136719 262.144531,104.867188 C262.144531,98.589844 257.066406,93.511719 250.789062,93.511719 C244.519531,93.511719 239.441406,98.589844 239.441406,104.867188 Z"></path>
                <path d="M213.0625,113.835938 C213.0625,120.308594 218.3125,125.558594 224.785156,125.558594 C231.257812,125.558594 236.507812,120.308594 236.507812,113.835938 C236.507812,107.363281 231.257812,102.113281 224.785156,102.113281 C218.3125,102.113281 213.0625,107.363281 213.0625,113.835938 Z"></path>
                <path d="M187.058594,122.8125 C187.058594,129.277344 192.308594,134.527344 198.78125,134.527344 C205.257812,134.527344 210.503906,129.277344 210.503906,122.8125 C210.503906,116.339844 205.257812,111.089844 198.78125,111.089844 C192.308594,111.089844 187.058594,116.339844 187.058594,122.8125 Z"></path>
                <path d="M161.613281,131.78125 C161.613281,137.949219 166.609375,142.949219 172.78125,142.949219 C178.949219,142.949219 183.949219,137.949219 183.949219,131.78125 C183.949219,125.613281 178.949219,120.613281 172.78125,120.613281 C166.609375,120.613281 161.613281,125.613281 161.613281,131.78125 Z"></path>
                <path d="M136.523438,140.757812 C136.523438,146.417969 141.109375,151.003906 146.777344,151.003906 C152.4375,151.003906 157.035156,146.417969 157.035156,140.757812 C157.035156,135.089844 152.4375,130.503906 146.777344,130.503906 C141.109375,130.503906 136.523438,135.089844 136.523438,140.757812 Z"></path>
                <path d="M111.976562,149.726562 C111.976562,154.679688 116,158.703125 120.953125,158.703125 C125.910156,158.703125 129.933594,154.679688 129.933594,149.726562 C129.933594,144.773438 125.910156,140.757812 120.953125,140.757812 C116,140.757812 111.976562,144.773438 111.976562,149.726562 Z"></path>
                <path d="M87.628906,158.515625 C87.628906,162.566406 90.902344,165.839844 94.953125,165.839844 C98.992188,165.839844 102.277344,162.566406 102.277344,158.515625 C102.277344,154.476562 98.992188,151.195312 94.953125,151.195312 C90.902344,151.195312 87.628906,154.476562 87.628906,158.515625 Z"></path>
                <path d="M63.449219,167.496094 C63.449219,170.527344 65.910156,172.984375 68.949219,172.984375 C71.980469,172.984375 74.441406,170.527344 74.441406,167.496094 C74.441406,164.453125 71.980469,161.996094 68.949219,161.996094 C65.910156,161.996094 63.449219,164.453125 63.449219,167.496094 Z"></path>
                <path d="M39.460938,176.460938 C39.460938,178.386719 41.023438,179.941406 42.949219,179.941406 C44.859375,179.941406 46.425781,178.386719 46.425781,176.460938 C46.425781,174.539062 44.859375,172.984375 42.949219,172.984375 C41.023438,172.984375 39.460938,174.539062 39.460938,176.460938 Z"></path>
                <path d="M15.65625,185.441406 C15.65625,186.148438 16.230469,186.71875 16.9375,186.71875 C17.652344,186.71875 18.222656,186.148438 18.222656,185.441406 C18.222656,184.734375 17.652344,184.152344 16.9375,184.152344 C16.230469,184.152344 15.65625,184.734375 15.65625,185.441406 Z"></path>
                <path d="M440.324219,68.242188 C440.324219,68.839844 440.816406,69.332031 441.421875,69.332031 C442.03125,69.332031 442.523438,68.839844 442.523438,68.242188 C442.523438,67.632812 442.03125,67.140625 441.421875,67.140625 C440.816406,67.140625 440.324219,67.632812 440.324219,68.242188 Z"></path>
                <path d="M411.941406,77.210938 C411.941406,79.132812 413.5,80.6875 415.421875,80.6875 C417.34375,80.6875 418.898438,79.132812 418.898438,77.210938 C418.898438,75.289062 417.34375,73.730469 415.421875,73.730469 C413.5,73.730469 411.941406,75.289062 411.941406,77.210938 Z"></path>
                <path d="M383.921875,86.1875 C383.921875,89.316406 386.46875,91.855469 389.597656,91.855469 C392.738281,91.855469 395.277344,89.316406 395.277344,86.1875 C395.277344,83.050781 392.738281,80.507812 389.597656,80.507812 C386.46875,80.507812 383.921875,83.050781 383.921875,86.1875 Z"></path>
                <path d="M355.71875,95.15625 C355.71875,99.5 359.25,103.035156 363.59375,103.035156 C367.941406,103.035156 371.472656,99.5 371.472656,95.15625 C371.472656,90.808594 367.941406,87.277344 363.59375,87.277344 C359.25,87.277344 355.71875,90.808594 355.71875,95.15625 Z"></path>
                <path d="M327.703125,104.132812 C327.703125,109.589844 332.128906,114.023438 337.59375,114.023438 C343.054688,114.023438 347.484375,109.589844 347.484375,104.132812 C347.484375,98.671875 343.054688,94.246094 337.59375,94.246094 C332.128906,94.246094 327.703125,98.671875 327.703125,104.132812 Z"></path>
                <path d="M300.046875,113.101562 C300.046875,119.476562 305.214844,124.636719 311.589844,124.636719 C317.957031,124.636719 323.125,119.476562 323.125,113.101562 C323.125,106.734375 317.957031,101.566406 311.589844,101.566406 C305.214844,101.566406 300.046875,106.734375 300.046875,113.101562 Z"></path>
                <path d="M272.578125,121.890625 C272.578125,129.070312 278.398438,134.894531 285.589844,134.894531 C292.769531,134.894531 298.589844,129.070312 298.589844,121.890625 C298.589844,114.710938 292.769531,108.890625 285.589844,108.890625 C278.398438,108.890625 272.578125,114.710938 272.578125,121.890625 Z"></path>
                <path d="M245.476562,130.871094 C245.476562,138.65625 251.789062,144.96875 259.578125,144.96875 C267.367188,144.96875 273.679688,138.65625 273.679688,130.871094 C273.679688,123.082031 267.367188,116.769531 259.578125,116.769531 C251.789062,116.769531 245.476562,123.082031 245.476562,130.871094 Z"></path>
                <path d="M219.296875,139.835938 C219.296875,147.832031 225.769531,154.304688 233.761719,154.304688 C241.746094,154.304688 248.230469,147.832031 248.230469,139.835938 C248.230469,131.851562 241.746094,125.371094 233.761719,125.371094 C225.769531,125.371094 219.296875,131.851562 219.296875,139.835938 Z"></path>
                <path d="M193.292969,148.816406 C193.292969,156.800781 199.765625,163.28125 207.761719,163.28125 C215.746094,163.28125 222.21875,156.800781 222.21875,148.816406 C222.21875,140.820312 215.746094,134.347656 207.761719,134.347656 C199.765625,134.347656 193.292969,140.820312 193.292969,148.816406 Z"></path>
                <path d="M168.015625,157.785156 C168.015625,165.375 174.167969,171.519531 181.75,171.519531 C189.339844,171.519531 195.484375,165.375 195.484375,157.785156 C195.484375,150.199219 189.339844,144.050781 181.75,144.050781 C174.167969,144.050781 168.015625,150.199219 168.015625,157.785156 Z"></path>
                <path d="M143.113281,166.761719 C143.113281,173.734375 148.773438,179.394531 155.746094,179.394531 C162.730469,179.394531 168.382812,173.734375 168.382812,166.761719 C168.382812,159.777344 162.730469,154.125 155.746094,154.125 C148.773438,154.125 143.113281,159.777344 143.113281,166.761719 Z"></path>
                <path d="M118.574219,175.550781 C118.574219,181.71875 123.574219,186.71875 129.746094,186.71875 C135.914062,186.71875 140.914062,181.71875 140.914062,175.550781 C140.914062,169.382812 135.914062,164.382812 129.746094,164.382812 C123.574219,164.382812 118.574219,169.382812 118.574219,175.550781 Z"></path>
                <path d="M94.585938,184.519531 C94.585938,189.679688 98.769531,193.863281 103.921875,193.863281 C109.078125,193.863281 113.265625,189.679688 113.265625,184.519531 C113.265625,179.359375 109.078125,175.183594 103.921875,175.183594 C98.769531,175.183594 94.585938,179.359375 94.585938,184.519531 Z"></path>
                <path d="M70.59375,193.496094 C70.59375,197.539062 73.875,200.820312 77.917969,200.820312 C81.96875,200.820312 85.242188,197.539062 85.242188,193.496094 C85.242188,189.445312 81.96875,186.171875 77.917969,186.171875 C73.875,186.171875 70.59375,189.445312 70.59375,193.496094 Z"></path>
                <path d="M46.792969,202.464844 C46.792969,205.300781 49.082031,207.597656 51.914062,207.597656 C54.75,207.597656 57.039062,205.300781 57.039062,202.464844 C57.039062,199.640625 54.75,197.339844 51.914062,197.339844 C49.082031,197.339844 46.792969,199.640625 46.792969,202.464844 Z"></path>
                <path d="M22.980469,211.441406 C22.980469,213.0625 24.296875,214.375 25.914062,214.375 C27.53125,214.375 28.847656,213.0625 28.847656,211.441406 C28.847656,209.824219 27.53125,208.507812 25.914062,208.507812 C24.296875,208.507812 22.980469,209.824219 22.980469,211.441406 Z"></path>
                <path d="M448.015625,94.246094 C448.015625,95.558594 449.078125,96.621094 450.402344,96.621094 C451.714844,96.621094 452.78125,95.558594 452.78125,94.246094 C452.78125,92.929688 451.714844,91.855469 450.402344,91.855469 C449.078125,91.855469 448.015625,92.929688 448.015625,94.246094 Z"></path>
                <path d="M419.632812,103.210938 C419.632812,105.839844 421.761719,107.980469 424.390625,107.980469 C427.019531,107.980469 429.15625,105.839844 429.15625,103.210938 C429.15625,100.582031 427.019531,98.457031 424.390625,98.457031 C421.761719,98.457031 419.632812,100.582031 419.632812,103.210938 Z"></path>
                <path d="M391.0625,112.191406 C391.0625,116.230469 394.347656,119.511719 398.386719,119.511719 C402.4375,119.511719 405.710938,116.230469 405.710938,112.191406 C405.710938,108.140625 402.4375,104.867188 398.386719,104.867188 C394.347656,104.867188 391.0625,108.140625 391.0625,112.191406 Z"></path>
                <path d="M363.050781,121.160156 C363.050781,126.417969 367.304688,130.679688 372.574219,130.679688 C377.832031,130.679688 382.085938,126.417969 382.085938,121.160156 C382.085938,115.902344 377.832031,111.636719 372.574219,111.636719 C367.304688,111.636719 363.050781,115.902344 363.050781,121.160156 Z"></path>
                <path d="M334.847656,130.136719 C334.847656,136.609375 340.089844,141.847656 346.5625,141.847656 C353.035156,141.847656 358.285156,136.609375 358.285156,130.136719 C358.285156,123.664062 353.035156,118.414062 346.5625,118.414062 C340.089844,118.414062 334.847656,123.664062 334.847656,130.136719 Z"></path>
                <path d="M306.824219,138.925781 C306.824219,146.507812 312.976562,152.660156 320.558594,152.660156 C328.152344,152.660156 334.292969,146.507812 334.292969,138.925781 C334.292969,131.335938 328.152344,125.191406 320.558594,125.191406 C312.976562,125.191406 306.824219,131.335938 306.824219,138.925781 Z"></path>
                <path d="M279.175781,147.894531 C279.175781,156.390625 286.0625,163.28125 294.558594,163.28125 C303.050781,163.28125 309.9375,156.390625 309.9375,147.894531 C309.9375,139.398438 303.050781,132.515625 294.558594,132.515625 C286.0625,132.515625 279.175781,139.398438 279.175781,147.894531 Z"></path>
                <path d="M251.886719,156.871094 C251.886719,166.074219 259.355469,173.539062 268.554688,173.539062 C277.753906,173.539062 285.222656,166.074219 285.222656,156.871094 C285.222656,147.671875 277.753906,140.203125 268.554688,140.203125 C259.355469,140.203125 251.886719,147.671875 251.886719,156.871094 Z"></path>
                <path d="M225.339844,165.839844 C225.339844,175.355469 233.046875,183.054688 242.550781,183.054688 C252.058594,183.054688 259.765625,175.355469 259.765625,165.839844 C259.765625,156.335938 252.058594,148.628906 242.550781,148.628906 C233.046875,148.628906 225.339844,156.335938 225.339844,165.839844 Z"></path>
                <path d="M199.515625,174.816406 C199.515625,184.324219 207.222656,192.03125 216.730469,192.03125 C226.234375,192.03125 233.941406,184.324219 233.941406,174.816406 C233.941406,165.3125 226.234375,157.605469 216.730469,157.605469 C207.222656,157.605469 199.515625,165.3125 199.515625,174.816406 Z"></path>
                <path d="M174.425781,183.785156 C174.425781,192.789062 181.722656,200.085938 190.726562,200.085938 C199.730469,200.085938 207.027344,192.789062 207.027344,183.785156 C207.027344,174.789062 199.730469,167.496094 190.726562,167.496094 C181.722656,167.496094 174.425781,174.789062 174.425781,183.785156 Z"></path>
                <path d="M149.703125,192.574219 C149.703125,200.875 156.425781,207.597656 164.722656,207.597656 C173.011719,207.597656 179.738281,200.875 179.738281,192.574219 C179.738281,184.285156 173.011719,177.5625 164.722656,177.5625 C156.425781,177.5625 149.703125,184.285156 149.703125,192.574219 Z"></path>
                <path d="M125.53125,201.554688 C125.53125,208.832031 131.433594,214.742188 138.722656,214.742188 C146,214.742188 151.902344,208.832031 151.902344,201.554688 C151.902344,194.273438 146,188.363281 138.722656,188.363281 C131.433594,188.363281 125.53125,194.273438 125.53125,201.554688 Z"></path>
                <path d="M101.542969,210.523438 C101.542969,216.691406 106.539062,221.699219 112.710938,221.699219 C118.878906,221.699219 123.886719,216.691406 123.886719,210.523438 C123.886719,204.359375 118.878906,199.351562 112.710938,199.351562 C106.539062,199.351562 101.542969,204.359375 101.542969,210.523438 Z"></path>
                <path d="M77.917969,219.5 C77.917969,224.453125 81.933594,228.476562 86.894531,228.476562 C91.847656,228.476562 95.863281,224.453125 95.863281,219.5 C95.863281,214.546875 91.847656,210.523438 86.894531,210.523438 C81.933594,210.523438 77.917969,214.546875 77.917969,219.5 Z"></path>
                <path d="M54.292969,228.476562 C54.292969,232.117188 57.246094,235.066406 60.894531,235.066406 C64.53125,235.066406 67.484375,232.117188 67.484375,228.476562 C67.484375,224.828125 64.53125,221.878906 60.894531,221.878906 C57.246094,221.878906 54.292969,224.828125 54.292969,228.476562 Z"></path>
                <path d="M30.671875,237.445312 C30.671875,239.769531 32.558594,241.65625 34.882812,241.65625 C37.214844,241.65625 39.09375,239.769531 39.09375,237.445312 C39.09375,235.121094 37.214844,233.234375 34.882812,233.234375 C32.558594,233.234375 30.671875,235.121094 30.671875,237.445312 Z"></path>
                <path d="M7.234375,246.234375 C7.234375,247.148438 7.96875,247.878906 8.878906,247.878906 C9.792969,247.878906 10.535156,247.148438 10.535156,246.234375 C10.535156,245.324219 9.792969,244.589844 8.878906,244.589844 C7.96875,244.589844 7.234375,245.324219 7.234375,246.234375 Z"></path>
                <path d="M484.640625,111.269531 C484.640625,111.679688 484.96875,112.003906 485.371094,112.003906 C485.773438,112.003906 486.105469,111.679688 486.105469,111.269531 C486.105469,110.867188 485.773438,110.535156 485.371094,110.535156 C484.96875,110.535156 484.640625,110.867188 484.640625,111.269531 Z"></path>
                <path d="M456.070312,120.246094 C456.070312,122.0625 457.546875,123.535156 459.371094,123.535156 C461.195312,123.535156 462.667969,122.0625 462.667969,120.246094 C462.667969,118.421875 461.195312,116.945312 459.371094,116.945312 C457.546875,116.945312 456.070312,118.421875 456.070312,120.246094 Z"></path>
                <path d="M427.511719,129.214844 C427.511719,132.453125 430.128906,135.082031 433.367188,135.082031 C436.605469,135.082031 439.222656,132.453125 439.222656,129.214844 C439.222656,125.976562 436.605469,123.359375 433.367188,123.359375 C430.128906,123.359375 427.511719,125.976562 427.511719,129.214844 Z"></path>
                <path d="M398.941406,138.191406 C398.941406,142.84375 402.707031,146.617188 407.363281,146.617188 C412.015625,146.617188 415.789062,142.84375 415.789062,138.191406 C415.789062,133.542969 412.015625,129.769531 407.363281,129.769531 C402.707031,129.769531 398.941406,133.542969 398.941406,138.191406 Z"></path>
                <path d="M370.375,147.160156 C370.375,153.230469 375.292969,158.148438 381.363281,158.148438 C387.425781,158.148438 392.34375,153.230469 392.34375,147.160156 C392.34375,141.097656 387.425781,136.179688 381.363281,136.179688 C375.292969,136.179688 370.375,141.097656 370.375,147.160156 Z"></path>
                <path d="M342.171875,155.949219 C342.171875,163.335938 348.152344,169.316406 355.539062,169.316406 C362.925781,169.316406 368.90625,163.335938 368.90625,155.949219 C368.90625,148.574219 362.925781,142.582031 355.539062,142.582031 C348.152344,142.582031 342.171875,148.574219 342.171875,155.949219 Z"></path>
                <path d="M313.96875,164.929688 C313.96875,173.519531 320.933594,180.496094 329.535156,180.496094 C338.128906,180.496094 345.105469,173.519531 345.105469,164.929688 C345.105469,156.335938 338.128906,149.359375 329.535156,149.359375 C320.933594,149.359375 313.96875,156.335938 313.96875,164.929688 Z"></path>
                <path d="M285.945312,173.894531 C285.945312,183.605469 293.824219,191.484375 303.535156,191.484375 C313.234375,191.484375 321.113281,183.605469 321.113281,173.894531 C321.113281,164.195312 313.234375,156.316406 303.535156,156.316406 C293.824219,156.316406 285.945312,164.195312 285.945312,173.894531 Z"></path>
                <path d="M258.296875,182.875 C258.296875,193.496094 266.910156,202.097656 277.523438,202.097656 C288.144531,202.097656 296.757812,193.496094 296.757812,182.875 C296.757812,172.25 288.144531,163.648438 277.523438,163.648438 C266.910156,163.648438 258.296875,172.25 258.296875,182.875 Z"></path>
                <path d="M231.5625,191.851562 C231.5625,202.867188 240.496094,211.808594 251.519531,211.808594 C262.546875,211.808594 271.488281,202.867188 271.488281,191.851562 C271.488281,180.828125 262.546875,171.882812 251.519531,171.882812 C240.496094,171.882812 231.5625,180.828125 231.5625,191.851562 Z"></path>
                <path d="M205.5625,200.820312 C205.5625,211.84375 214.492188,220.777344 225.519531,220.777344 C236.542969,220.777344 245.476562,211.84375 245.476562,200.820312 C245.476562,189.792969 236.542969,180.863281 225.519531,180.863281 C214.492188,180.863281 205.5625,189.792969 205.5625,200.820312 Z"></path>
                <path d="M180.835938,209.609375 C180.835938,220.027344 189.277344,228.476562 199.695312,228.476562 C210.113281,228.476562 218.5625,220.027344 218.5625,209.609375 C218.5625,199.191406 210.113281,190.75 199.695312,190.75 C189.277344,190.75 180.835938,199.191406 180.835938,209.609375 Z"></path>
                <path d="M156.480469,218.585938 C156.480469,228.09375 164.1875,235.800781 173.691406,235.800781 C183.199219,235.800781 190.90625,228.09375 190.90625,218.585938 C190.90625,209.074219 183.199219,201.367188 173.691406,201.367188 C164.1875,201.367188 156.480469,209.074219 156.480469,218.585938 Z"></path>
                <path d="M132.675781,227.554688 C132.675781,235.851562 139.402344,242.570312 147.691406,242.570312 C155.988281,242.570312 162.703125,235.851562 162.703125,227.554688 C162.703125,219.265625 155.988281,212.542969 147.691406,212.542969 C139.402344,212.542969 132.675781,219.265625 132.675781,227.554688 Z"></path>
                <path d="M108.867188,236.53125 C108.867188,243.605469 114.605469,249.347656 121.6875,249.347656 C128.769531,249.347656 134.511719,243.605469 134.511719,236.53125 C134.511719,229.449219 128.769531,223.710938 121.6875,223.710938 C114.605469,223.710938 108.867188,229.449219 108.867188,236.53125 Z"></path>
                <path d="M85.429688,245.5 C85.429688,251.171875 90.015625,255.757812 95.683594,255.757812 C101.34375,255.757812 105.941406,251.171875 105.941406,245.5 C105.941406,239.839844 101.34375,235.246094 95.683594,235.246094 C90.015625,235.246094 85.429688,239.839844 85.429688,245.5 Z"></path>
                <path d="M61.984375,254.480469 C61.984375,258.824219 65.515625,262.347656 69.863281,262.347656 C74.207031,262.347656 77.738281,258.824219 77.738281,254.480469 C77.738281,250.125 74.207031,246.601562 69.863281,246.601562 C65.515625,246.601562 61.984375,250.125 61.984375,254.480469 Z"></path>
                <path d="M38.546875,263.269531 C38.546875,266.203125 40.925781,268.578125 43.859375,268.578125 C46.792969,268.578125 49.171875,266.203125 49.171875,263.269531 C49.171875,260.335938 46.792969,257.957031 43.859375,257.957031 C40.925781,257.957031 38.546875,260.335938 38.546875,263.269531 Z"></path>
                <path d="M15.289062,272.238281 C15.289062,273.660156 16.433594,274.804688 17.855469,274.804688 C19.269531,274.804688 20.414062,273.660156 20.414062,272.238281 C20.414062,270.824219 19.269531,269.679688 17.855469,269.679688 C16.433594,269.679688 15.289062,270.824219 15.289062,272.238281 Z"></path>
                <path d="M493.0625,137.269531 C493.0625,137.988281 493.644531,138.558594 494.347656,138.558594 C495.054688,138.558594 495.628906,137.988281 495.628906,137.269531 C495.628906,136.566406 495.054688,135.992188 494.347656,135.992188 C493.644531,135.992188 493.0625,136.566406 493.0625,137.269531 Z"></path>
                <path d="M464.3125,146.25 C464.3125,148.476562 466.121094,150.28125 468.347656,150.28125 C470.566406,150.28125 472.371094,148.476562 472.371094,146.25 C472.371094,144.023438 470.566406,142.214844 468.347656,142.214844 C466.121094,142.214844 464.3125,144.023438 464.3125,146.25 Z"></path>
                <path d="M435.566406,155.226562 C435.566406,158.964844 438.597656,161.996094 442.335938,161.996094 C446.082031,161.996094 449.113281,158.964844 449.113281,155.226562 C449.113281,151.480469 446.082031,148.449219 442.335938,148.449219 C438.597656,148.449219 435.566406,151.480469 435.566406,155.226562 Z"></path>
                <path d="M407,164.015625 C407,169.167969 411.175781,173.351562 416.332031,173.351562 C421.492188,173.351562 425.675781,169.167969 425.675781,164.015625 C425.675781,158.855469 421.492188,154.671875 416.332031,154.671875 C411.175781,154.671875 407,158.855469 407,164.015625 Z"></path>
                <path d="M378.242188,172.984375 C378.242188,179.664062 383.660156,185.074219 390.332031,185.074219 C397.011719,185.074219 402.421875,179.664062 402.421875,172.984375 C402.421875,166.3125 397.011719,160.894531 390.332031,160.894531 C383.660156,160.894531 378.242188,166.3125 378.242188,172.984375 Z"></path>
                <path d="M349.683594,181.960938 C349.683594,190.046875 356.238281,196.609375 364.328125,196.609375 C372.421875,196.609375 378.976562,190.046875 378.976562,181.960938 C378.976562,173.871094 372.421875,167.304688 364.328125,167.304688 C356.238281,167.304688 349.683594,173.871094 349.683594,181.960938 Z"></path>
                <path d="M321.292969,190.929688 C321.292969,200.433594 329,208.144531 338.503906,208.144531 C348.011719,208.144531 355.71875,200.433594 355.71875,190.929688 C355.71875,181.425781 348.011719,173.71875 338.503906,173.71875 C329,173.71875 321.292969,181.425781 321.292969,190.929688 Z"></path>
                <path d="M293.089844,199.90625 C293.089844,210.628906 301.78125,219.320312 312.503906,219.320312 C323.222656,219.320312 331.914062,210.628906 331.914062,199.90625 C331.914062,189.1875 323.222656,180.496094 312.503906,180.496094 C301.78125,180.496094 293.089844,189.1875 293.089844,199.90625 Z"></path>
                <path d="M265.078125,208.875 C265.078125,220.714844 274.671875,230.300781 286.5,230.300781 C298.332031,230.300781 307.925781,220.714844 307.925781,208.875 C307.925781,197.046875 298.332031,187.453125 286.5,187.453125 C274.671875,187.453125 265.078125,197.046875 265.078125,208.875 Z"></path>
                <path d="M237.785156,217.855469 C237.785156,230.390625 247.953125,240.554688 260.5,240.554688 C273.035156,240.554688 283.199219,230.390625 283.199219,217.855469 C283.199219,205.308594 273.035156,195.140625 260.5,195.140625 C247.953125,195.140625 237.785156,205.308594 237.785156,217.855469 Z"></path>
                <path d="M211.972656,226.644531 C211.972656,239.082031 222.050781,249.167969 234.496094,249.167969 C246.933594,249.167969 257.019531,239.082031 257.019531,226.644531 C257.019531,214.195312 246.933594,204.121094 234.496094,204.121094 C222.050781,204.121094 211.972656,214.195312 211.972656,226.644531 Z"></path>
                <path d="M187.613281,235.613281 C187.613281,247.246094 197.039062,256.667969 208.671875,256.667969 C220.304688,256.667969 229.730469,247.246094 229.730469,235.613281 C229.730469,223.980469 220.304688,214.554688 208.671875,214.554688 C197.039062,214.554688 187.613281,223.980469 187.613281,235.613281 Z"></path>
                <path d="M163.804688,244.589844 C163.804688,255.007812 172.253906,263.445312 182.671875,263.445312 C193.085938,263.445312 201.527344,255.007812 201.527344,244.589844 C201.527344,234.171875 193.085938,225.722656 182.671875,225.722656 C172.253906,225.722656 163.804688,234.171875 163.804688,244.589844 Z"></path>
                <path d="M140.179688,253.558594 C140.179688,262.660156 147.566406,270.039062 156.667969,270.039062 C165.769531,270.039062 173.148438,262.660156 173.148438,253.558594 C173.148438,244.457031 165.769531,237.078125 156.667969,237.078125 C147.566406,237.078125 140.179688,244.457031 140.179688,253.558594 Z"></path>
                <path d="M116.742188,262.535156 C116.742188,270.214844 122.976562,276.449219 130.65625,276.449219 C138.347656,276.449219 144.578125,270.214844 144.578125,262.535156 C144.578125,254.84375 138.347656,248.613281 130.65625,248.613281 C122.976562,248.613281 116.742188,254.84375 116.742188,262.535156 Z"></path>
                <path d="M93.308594,271.503906 C93.308594,277.78125 98.386719,282.859375 104.652344,282.859375 C110.929688,282.859375 116.011719,277.78125 116.011719,271.503906 C116.011719,265.234375 110.929688,260.15625 104.652344,260.15625 C98.386719,260.15625 93.308594,265.234375 93.308594,271.503906 Z"></path>
                <path d="M70.050781,280.292969 C70.050781,285.050781 73.902344,288.902344 78.652344,288.902344 C83.410156,288.902344 87.261719,285.050781 87.261719,280.292969 C87.261719,275.546875 83.410156,271.691406 78.652344,271.691406 C73.902344,271.691406 70.050781,275.546875 70.050781,280.292969 Z"></path>
                <path d="M46.792969,289.269531 C46.792969,292.605469 49.492188,295.316406 52.828125,295.316406 C56.171875,295.316406 58.871094,292.605469 58.871094,289.269531 C58.871094,285.933594 56.171875,283.226562 52.828125,283.226562 C49.492188,283.226562 46.792969,285.933594 46.792969,289.269531 Z"></path>
                <path d="M23.535156,298.238281 C23.535156,300.0625 25.011719,301.539062 26.824219,301.539062 C28.648438,301.539062 30.125,300.0625 30.125,298.238281 C30.125,296.425781 28.648438,294.949219 26.824219,294.949219 C25.011719,294.949219 23.535156,296.425781 23.535156,298.238281 Z"></path>
                <path d="M0.277344,307.214844 C0.277344,307.519531 0.519531,307.761719 0.824219,307.761719 C1.128906,307.761719 1.378906,307.519531 1.378906,307.214844 C1.378906,306.914062 1.128906,306.664062 0.824219,306.664062 C0.519531,306.664062 0.277344,306.914062 0.277344,307.214844 Z"></path>
                <path d="M501.484375,163.28125 C501.484375,164.1875 502.226562,164.929688 503.140625,164.929688 C504.050781,164.929688 504.785156,164.1875 504.785156,163.28125 C504.785156,162.371094 504.050781,161.628906 503.140625,161.628906 C502.226562,161.628906 501.484375,162.371094 501.484375,163.28125 Z"></path>
                <path d="M472.925781,172.25 C472.925781,174.683594 474.890625,176.652344 477.316406,176.652344 C479.746094,176.652344 481.714844,174.683594 481.714844,172.25 C481.714844,169.828125 479.746094,167.859375 477.316406,167.859375 C474.890625,167.859375 472.925781,169.828125 472.925781,172.25 Z"></path>
                <path d="M444.167969,181.039062 C444.167969,184.984375 447.371094,188.183594 451.3125,188.183594 C455.257812,188.183594 458.457031,184.984375 458.457031,181.039062 C458.457031,177.097656 455.257812,173.894531 451.3125,173.894531 C447.371094,173.894531 444.167969,177.097656 444.167969,181.039062 Z"></path>
                <path d="M415.421875,190.019531 C415.421875,195.480469 419.847656,199.90625 425.3125,199.90625 C430.773438,199.90625 435.199219,195.480469 435.199219,190.019531 C435.199219,184.554688 430.773438,180.128906 425.3125,180.128906 C419.847656,180.128906 415.421875,184.554688 415.421875,190.019531 Z"></path>
                <path d="M386.664062,198.988281 C386.664062,205.96875 392.324219,211.621094 399.308594,211.621094 C406.28125,211.621094 411.941406,205.96875 411.941406,198.988281 C411.941406,192.011719 406.28125,186.351562 399.308594,186.351562 C392.324219,186.351562 386.664062,192.011719 386.664062,198.988281 Z"></path>
                <path d="M357.917969,207.964844 C357.917969,216.457031 364.800781,223.34375 373.296875,223.34375 C381.800781,223.34375 388.6875,216.457031 388.6875,207.964844 C388.6875,199.46875 381.800781,192.574219 373.296875,192.574219 C364.800781,192.574219 357.917969,199.46875 357.917969,207.964844 Z"></path>
                <path d="M329.347656,216.933594 C329.347656,226.847656 337.386719,234.878906 347.292969,234.878906 C357.210938,234.878906 365.242188,226.847656 365.242188,216.933594 C365.242188,207.023438 357.210938,198.988281 347.292969,198.988281 C337.386719,198.988281 329.347656,207.023438 329.347656,216.933594 Z"></path>
                <path d="M300.78125,225.910156 C300.78125,237.335938 310.042969,246.601562 321.480469,246.601562 C332.90625,246.601562 342.171875,237.335938 342.171875,225.910156 C342.171875,214.484375 332.90625,205.21875 321.480469,205.21875 C310.042969,205.21875 300.78125,214.484375 300.78125,225.910156 Z"></path>
                <path d="M272.210938,234.878906 C272.210938,247.726562 282.628906,258.136719 295.46875,258.136719 C308.316406,258.136719 318.726562,247.726562 318.726562,234.878906 C318.726562,222.039062 308.316406,211.621094 295.46875,211.621094 C282.628906,211.621094 272.210938,222.039062 272.210938,234.878906 Z"></path>
                <path d="M244.199219,243.667969 C244.199219,257.625 255.507812,268.945312 269.464844,268.945312 C283.425781,268.945312 294.746094,257.625 294.746094,243.667969 C294.746094,229.710938 283.425781,218.398438 269.464844,218.398438 C255.507812,218.398438 244.199219,229.710938 244.199219,243.667969 Z"></path>
                <path d="M218.5625,252.644531 C218.5625,266.398438 229.710938,277.546875 243.464844,277.546875 C257.214844,277.546875 268.367188,266.398438 268.367188,252.644531 C268.367188,238.894531 257.214844,227.742188 243.464844,227.742188 C229.710938,227.742188 218.5625,238.894531 218.5625,252.644531 Z"></path>
                <path d="M194.9375,261.613281 C194.9375,274.0625 205.023438,284.136719 217.460938,284.136719 C229.898438,284.136719 239.984375,274.0625 239.984375,261.613281 C239.984375,249.175781 229.898438,239.089844 217.460938,239.089844 C205.023438,239.089844 194.9375,249.175781 194.9375,261.613281 Z"></path>
                <path d="M171.679688,270.589844 C171.679688,281.617188 180.613281,290.550781 191.636719,290.550781 C202.664062,290.550781 211.605469,281.617188 211.605469,270.589844 C211.605469,259.566406 202.664062,250.632812 191.636719,250.632812 C180.613281,250.632812 171.679688,259.566406 171.679688,270.589844 Z"></path>
                <path d="M148.421875,279.558594 C148.421875,289.074219 156.132812,296.78125 165.636719,296.78125 C175.140625,296.78125 182.847656,289.074219 182.847656,279.558594 C182.847656,270.054688 175.140625,262.347656 165.636719,262.347656 C156.132812,262.347656 148.421875,270.054688 148.421875,279.558594 Z"></path>
                <path d="M124.988281,288.539062 C124.988281,296.628906 131.542969,303.183594 139.632812,303.183594 C147.726562,303.183594 154.28125,296.628906 154.28125,288.539062 C154.28125,280.445312 147.726562,273.890625 139.632812,273.890625 C131.542969,273.890625 124.988281,280.445312 124.988281,288.539062 Z"></path>
                <path d="M101.730469,297.328125 C101.730469,303.898438 107.058594,309.230469 113.632812,309.230469 C120.203125,309.230469 125.53125,303.898438 125.53125,297.328125 C125.53125,290.753906 120.203125,285.425781 113.632812,285.425781 C107.058594,285.425781 101.730469,290.753906 101.730469,297.328125 Z"></path>
                <path d="M78.472656,306.304688 C78.472656,311.355469 82.566406,315.460938 87.628906,315.460938 C92.679688,315.460938 96.785156,311.355469 96.785156,306.304688 C96.785156,301.242188 92.679688,297.148438 87.628906,297.148438 C82.566406,297.148438 78.472656,301.242188 78.472656,306.304688 Z"></path>
                <path d="M55.214844,315.273438 C55.214844,318.8125 58.085938,321.683594 61.617188,321.683594 C65.160156,321.683594 68.027344,318.8125 68.027344,315.273438 C68.027344,311.730469 65.160156,308.863281 61.617188,308.863281 C58.085938,308.863281 55.214844,311.730469 55.214844,315.273438 Z"></path>
                <path d="M32.136719,324.25 C32.136719,326.269531 33.78125,327.90625 35.804688,327.90625 C37.824219,327.90625 39.460938,326.269531 39.460938,324.25 C39.460938,322.222656 37.824219,320.585938 35.804688,320.585938 C33.78125,320.585938 32.136719,322.222656 32.136719,324.25 Z"></path>
                <path d="M8.878906,333.21875 C8.878906,333.730469 9.292969,334.132812 9.800781,334.132812 C10.300781,334.132812 10.710938,333.730469 10.710938,333.21875 C10.710938,332.71875 10.300781,332.308594 9.800781,332.308594 C9.292969,332.308594 8.878906,332.71875 8.878906,333.21875 Z"></path>
                <path d="M510.460938,189.285156 C510.460938,190.195312 511.195312,190.929688 512.109375,190.929688 C513.019531,190.929688 513.761719,190.195312 513.761719,189.285156 C513.761719,188.371094 513.019531,187.632812 512.109375,187.632812 C511.195312,187.632812 510.460938,188.371094 510.460938,189.285156 Z"></path>
                <path d="M481.714844,198.074219 C481.714844,200.496094 483.683594,202.464844 486.105469,202.464844 C488.539062,202.464844 490.503906,200.496094 490.503906,198.074219 C490.503906,195.644531 488.539062,193.675781 486.105469,193.675781 C483.683594,193.675781 481.714844,195.644531 481.714844,198.074219 Z"></path>
                <path d="M453.144531,207.042969 C453.144531,210.988281 456.339844,214.1875 460.28125,214.1875 C464.234375,214.1875 467.425781,210.988281 467.425781,207.042969 C467.425781,203.101562 464.234375,199.90625 460.28125,199.90625 C456.339844,199.90625 453.144531,203.101562 453.144531,207.042969 Z"></path>
                <path d="M424.390625,216.019531 C424.390625,221.484375 428.816406,225.910156 434.28125,225.910156 C439.742188,225.910156 444.167969,221.484375 444.167969,216.019531 C444.167969,210.558594 439.742188,206.132812 434.28125,206.132812 C428.816406,206.132812 424.390625,210.558594 424.390625,216.019531 Z"></path>
                <path d="M395.640625,224.988281 C395.640625,231.972656 401.300781,237.632812 408.277344,237.632812 C415.261719,237.632812 420.910156,231.972656 420.910156,224.988281 C420.910156,218.015625 415.261719,212.355469 408.277344,212.355469 C401.300781,212.355469 395.640625,218.015625 395.640625,224.988281 Z"></path>
                <path d="M366.894531,233.964844 C366.894531,242.460938 373.78125,249.347656 382.273438,249.347656 C390.769531,249.347656 397.65625,242.460938 397.65625,233.964844 C397.65625,225.472656 390.769531,218.585938 382.273438,218.585938 C373.78125,218.585938 366.894531,225.472656 366.894531,233.964844 Z"></path>
                <path d="M338.136719,242.933594 C338.136719,252.949219 346.257812,261.070312 356.273438,261.070312 C366.285156,261.070312 374.398438,252.949219 374.398438,242.933594 C374.398438,232.929688 366.285156,224.808594 356.273438,224.808594 C346.257812,224.808594 338.136719,232.929688 338.136719,242.933594 Z"></path>
                <path d="M309.390625,251.726562 C309.390625,263.257812 318.734375,272.601562 330.269531,272.601562 C341.796875,272.601562 351.140625,263.257812 351.140625,251.726562 C351.140625,240.199219 341.796875,230.855469 330.269531,230.855469 C318.734375,230.855469 309.390625,240.199219 309.390625,251.726562 Z"></path>
                <path d="M280.824219,260.703125 C280.824219,273.746094 291.402344,284.324219 304.445312,284.324219 C317.492188,284.324219 328.070312,273.746094 328.070312,260.703125 C328.070312,247.65625 317.492188,237.078125 304.445312,237.078125 C291.402344,237.078125 280.824219,247.65625 280.824219,260.703125 Z"></path>
                <path d="M252.253906,269.679688 C252.253906,284.136719 263.976562,295.859375 278.445312,295.859375 C292.902344,295.859375 304.625,284.136719 304.625,269.679688 C304.625,255.210938 292.902344,243.488281 278.445312,243.488281 C263.976562,243.488281 252.253906,255.210938 252.253906,269.679688 Z"></path>
                <path d="M226.984375,278.648438 C226.984375,292.703125 238.375,304.105469 252.441406,304.105469 C266.496094,304.105469 277.890625,292.703125 277.890625,278.648438 C277.890625,264.589844 266.496094,253.191406 252.441406,253.191406 C238.375,253.191406 226.984375,264.589844 226.984375,278.648438 Z"></path>
                <path d="M203.539062,287.625 C203.539062,300.261719 213.796875,310.515625 226.429688,310.515625 C239.074219,310.515625 249.320312,300.261719 249.320312,287.625 C249.320312,274.980469 239.074219,264.734375 226.429688,264.734375 C213.796875,264.734375 203.539062,274.980469 203.539062,287.625 Z"></path>
                <path d="M180.292969,296.59375 C180.292969,307.71875 189.304688,316.738281 200.429688,316.738281 C211.558594,316.738281 220.574219,307.71875 220.574219,296.59375 C220.574219,285.46875 211.558594,276.449219 200.429688,276.449219 C189.304688,276.449219 180.292969,285.46875 180.292969,296.59375 Z"></path>
                <path d="M157.214844,305.570312 C157.214844,315.175781 165,322.964844 174.613281,322.964844 C184.21875,322.964844 192.003906,315.175781 192.003906,305.570312 C192.003906,295.960938 184.21875,288.171875 174.613281,288.171875 C165,288.171875 157.214844,295.960938 157.214844,305.570312 Z"></path>
                <path d="M133.957031,314.359375 C133.957031,322.453125 140.519531,329.007812 148.601562,329.007812 C156.695312,329.007812 163.257812,322.453125 163.257812,314.359375 C163.257812,306.269531 156.695312,299.707031 148.601562,299.707031 C140.519531,299.707031 133.957031,306.269531 133.957031,314.359375 Z"></path>
                <path d="M110.699219,323.328125 C110.699219,329.902344 116.027344,335.230469 122.601562,335.230469 C129.179688,335.230469 134.511719,329.902344 134.511719,323.328125 C134.511719,316.757812 129.179688,311.429688 122.601562,311.429688 C116.027344,311.429688 110.699219,316.757812 110.699219,323.328125 Z"></path>
                <path d="M87.441406,332.308594 C87.441406,337.359375 91.546875,341.464844 96.597656,341.464844 C101.660156,341.464844 105.753906,337.359375 105.753906,332.308594 C105.753906,327.246094 101.660156,323.152344 96.597656,323.152344 C91.546875,323.152344 87.441406,327.246094 87.441406,332.308594 Z"></path>
                <path d="M64.183594,341.277344 C64.183594,344.816406 67.054688,347.6875 70.59375,347.6875 C74.136719,347.6875 77.007812,344.816406 77.007812,341.277344 C77.007812,337.734375 74.136719,334.863281 70.59375,334.863281 C67.054688,334.863281 64.183594,337.734375 64.183594,341.277344 Z"></path>
                <path d="M40.925781,350.253906 C40.925781,352.273438 42.570312,353.910156 44.59375,353.910156 C46.613281,353.910156 48.25,352.273438 48.25,350.253906 C48.25,348.230469 46.613281,346.585938 44.59375,346.585938 C42.570312,346.585938 40.925781,348.230469 40.925781,350.253906 Z"></path>
                <path d="M17.855469,359.222656 C17.855469,359.730469 18.269531,360.140625 18.769531,360.140625 C19.277344,360.140625 19.691406,359.730469 19.691406,359.222656 C19.691406,358.71875 19.277344,358.308594 18.769531,358.308594 C18.269531,358.308594 17.855469,358.71875 17.855469,359.222656 Z"></path>
                <path d="M519.617188,215.101562 C519.617188,215.914062 520.269531,216.566406 521.085938,216.566406 C521.890625,216.566406 522.550781,215.914062 522.550781,215.101562 C522.550781,214.292969 521.890625,213.640625 521.085938,213.640625 C520.269531,213.640625 519.617188,214.292969 519.617188,215.101562 Z"></path>
                <path d="M490.871094,224.078125 C490.871094,226.402344 492.75,228.289062 495.082031,228.289062 C497.40625,228.289062 499.292969,226.402344 499.292969,224.078125 C499.292969,221.753906 497.40625,219.867188 495.082031,219.867188 C492.75,219.867188 490.871094,221.753906 490.871094,224.078125 Z"></path>
                <path d="M462.113281,233.054688 C462.113281,236.890625 465.234375,240.011719 469.070312,240.011719 C472.917969,240.011719 476.035156,236.890625 476.035156,233.054688 C476.035156,229.210938 472.917969,226.089844 469.070312,226.089844 C465.234375,226.089844 462.113281,229.210938 462.113281,233.054688 Z"></path>
                <path d="M433.546875,242.023438 C433.546875,247.386719 437.890625,251.726562 443.257812,251.726562 C448.613281,251.726562 452.957031,247.386719 452.957031,242.023438 C452.957031,236.667969 448.613281,232.320312 443.257812,232.320312 C437.890625,232.320312 433.546875,236.667969 433.546875,242.023438 Z"></path>
                <path d="M404.976562,251 C404.976562,257.769531 410.476562,263.269531 417.253906,263.269531 C424.023438,263.269531 429.523438,257.769531 429.523438,251 C429.523438,244.222656 424.023438,238.722656 417.253906,238.722656 C410.476562,238.722656 404.976562,244.222656 404.976562,251 Z"></path>
                <path d="M376.230469,259.96875 C376.230469,268.265625 382.953125,274.980469 391.242188,274.980469 C399.542969,274.980469 406.265625,268.265625 406.265625,259.96875 C406.265625,251.679688 399.542969,244.957031 391.242188,244.957031 C382.953125,244.957031 376.230469,251.679688 376.230469,259.96875 Z"></path>
                <path d="M347.660156,268.757812 C347.660156,278.46875 355.53125,286.335938 365.242188,286.335938 C374.953125,286.335938 382.820312,278.46875 382.820312,268.757812 C382.820312,259.046875 374.953125,251.179688 365.242188,251.179688 C355.53125,251.179688 347.660156,259.046875 347.660156,268.757812 Z"></path>
                <path d="M319.28125,277.734375 C319.28125,288.761719 328.214844,297.695312 339.238281,297.695312 C350.261719,297.695312 359.195312,288.761719 359.195312,277.734375 C359.195312,266.710938 350.261719,257.769531 339.238281,257.769531 C328.214844,257.769531 319.28125,266.710938 319.28125,277.734375 Z"></path>
                <path d="M290.890625,286.703125 C290.890625,299.042969 300.898438,309.050781 313.234375,309.050781 C325.574219,309.050781 335.582031,299.042969 335.582031,286.703125 C335.582031,274.363281 325.574219,264.367188 313.234375,264.367188 C300.898438,264.367188 290.890625,274.363281 290.890625,286.703125 Z"></path>
                <path d="M263.609375,295.683594 C263.609375,308.824219 274.269531,319.484375 287.414062,319.484375 C300.566406,319.484375 311.222656,308.824219 311.222656,295.683594 C311.222656,282.527344 300.566406,271.871094 287.414062,271.871094 C274.269531,271.871094 263.609375,282.527344 263.609375,295.683594 Z"></path>
                <path d="M237.972656,304.652344 C237.972656,317.597656 248.460938,328.09375 261.410156,328.09375 C274.359375,328.09375 284.855469,317.597656 284.855469,304.652344 C284.855469,291.703125 274.359375,281.214844 261.410156,281.214844 C248.460938,281.214844 237.972656,291.703125 237.972656,304.652344 Z"></path>
                <path d="M213.617188,313.628906 C213.617188,325.664062 223.371094,335.417969 235.40625,335.417969 C247.441406,335.417969 257.199219,325.664062 257.199219,313.628906 C257.199219,301.59375 247.441406,291.835938 235.40625,291.835938 C223.371094,291.835938 213.617188,301.59375 213.617188,313.628906 Z"></path>
                <path d="M189.992188,322.417969 C189.992188,333.136719 198.683594,341.828125 209.40625,341.828125 C220.125,341.828125 228.816406,333.136719 228.816406,322.417969 C228.816406,311.695312 220.125,303.003906 209.40625,303.003906 C198.683594,303.003906 189.992188,311.695312 189.992188,322.417969 Z"></path>
                <path d="M166.558594,331.386719 C166.558594,340.695312 174.09375,348.230469 183.402344,348.230469 C192.703125,348.230469 200.25,340.695312 200.25,331.386719 C200.25,322.085938 192.703125,314.539062 183.402344,314.539062 C174.09375,314.539062 166.558594,322.085938 166.558594,331.386719 Z"></path>
                <path d="M143.300781,340.363281 C143.300781,348.25 149.691406,354.644531 157.578125,354.644531 C165.464844,354.644531 171.859375,348.25 171.859375,340.363281 C171.859375,332.476562 165.464844,326.074219 157.578125,326.074219 C149.691406,326.074219 143.300781,332.476562 143.300781,340.363281 Z"></path>
                <path d="M120.042969,349.332031 C120.042969,355.707031 125.203125,360.875 131.578125,360.875 C137.945312,360.875 143.113281,355.707031 143.113281,349.332031 C143.113281,342.964844 137.945312,337.796875 131.578125,337.796875 C125.203125,337.796875 120.042969,342.964844 120.042969,349.332031 Z"></path>
                <path d="M96.597656,358.308594 C96.597656,363.261719 100.613281,367.277344 105.574219,367.277344 C110.527344,367.277344 114.542969,363.261719 114.542969,358.308594 C114.542969,353.355469 110.527344,349.332031 105.574219,349.332031 C100.613281,349.332031 96.597656,353.355469 96.597656,358.308594 Z"></path>
                <path d="M73.339844,367.277344 C73.339844,370.71875 76.128906,373.511719 79.574219,373.511719 C83.007812,373.511719 85.796875,370.71875 85.796875,367.277344 C85.796875,363.84375 83.007812,361.054688 79.574219,361.054688 C76.128906,361.054688 73.339844,363.84375 73.339844,367.277344 Z"></path>
                <path d="M50.082031,376.253906 C50.082031,378.175781 51.640625,379.734375 53.5625,379.734375 C55.484375,379.734375 57.039062,378.175781 57.039062,376.253906 C57.039062,374.332031 55.484375,372.777344 53.5625,372.777344 C51.640625,372.777344 50.082031,374.332031 50.082031,376.253906 Z"></path>
                <path d="M26.824219,385.042969 C26.824219,385.445312 27.15625,385.777344 27.558594,385.777344 C27.960938,385.777344 28.292969,385.445312 28.292969,385.042969 C28.292969,384.640625 27.960938,384.3125 27.558594,384.3125 C27.15625,384.3125 26.824219,384.640625 26.824219,385.042969 Z"></path>
                <path d="M529.140625,241.109375 C529.140625,241.613281 529.554688,242.023438 530.054688,242.023438 C530.5625,242.023438 530.972656,241.613281 530.972656,241.109375 C530.972656,240.601562 530.5625,240.191406 530.054688,240.191406 C529.554688,240.191406 529.140625,240.601562 529.140625,241.109375 Z"></path>
                <path d="M500.394531,250.078125 C500.394531,252.101562 502.03125,253.746094 504.050781,253.746094 C506.070312,253.746094 507.71875,252.101562 507.71875,250.078125 C507.71875,248.058594 506.070312,246.421875 504.050781,246.421875 C502.03125,246.421875 500.394531,248.058594 500.394531,250.078125 Z"></path>
                <path d="M471.824219,259.058594 C471.824219,262.492188 474.605469,265.28125 478.046875,265.28125 C481.492188,265.28125 484.273438,262.492188 484.273438,259.058594 C484.273438,255.613281 481.492188,252.824219 478.046875,252.824219 C474.605469,252.824219 471.824219,255.613281 471.824219,259.058594 Z"></path>
                <path d="M443.257812,268.023438 C443.257812,272.878906 447.191406,276.816406 452.046875,276.816406 C456.902344,276.816406 460.835938,272.878906 460.835938,268.023438 C460.835938,263.171875 456.902344,259.234375 452.046875,259.234375 C447.191406,259.234375 443.257812,263.171875 443.257812,268.023438 Z"></path>
                <path d="M414.867188,277.003906 C414.867188,283.269531 419.953125,288.351562 426.222656,288.351562 C432.492188,288.351562 437.578125,283.269531 437.578125,277.003906 C437.578125,270.726562 432.492188,265.648438 426.222656,265.648438 C419.953125,265.648438 414.867188,270.726562 414.867188,277.003906 Z"></path>
                <path d="M386.308594,285.792969 C386.308594,293.472656 392.53125,299.707031 400.21875,299.707031 C407.910156,299.707031 414.132812,293.472656 414.132812,285.792969 C414.132812,278.101562 407.910156,271.871094 400.21875,271.871094 C392.53125,271.871094 386.308594,278.101562 386.308594,285.792969 Z"></path>
                <path d="M357.917969,294.761719 C357.917969,303.765625 365.214844,311.0625 374.21875,311.0625 C383.222656,311.0625 390.519531,303.765625 390.519531,294.761719 C390.519531,285.765625 383.222656,278.46875 374.21875,278.46875 C365.214844,278.46875 357.917969,285.765625 357.917969,294.761719 Z"></path>
                <path d="M329.902344,303.738281 C329.902344,313.851562 338.101562,322.050781 348.214844,322.050781 C358.328125,322.050781 366.527344,313.851562 366.527344,303.738281 C366.527344,293.625 358.328125,285.425781 348.214844,285.425781 C338.101562,285.425781 329.902344,293.625 329.902344,303.738281 Z"></path>
                <path d="M302.066406,312.707031 C302.066406,323.839844 311.082031,332.851562 322.214844,332.851562 C333.335938,332.851562 342.351562,323.839844 342.351562,312.707031 C342.351562,301.582031 333.335938,292.570312 322.214844,292.570312 C311.082031,292.570312 302.066406,301.582031 302.066406,312.707031 Z"></path>
                <path d="M275.144531,321.683594 C275.144531,333.316406 284.578125,342.742188 296.203125,342.742188 C307.835938,342.742188 317.269531,333.316406 317.269531,321.683594 C317.269531,310.050781 307.835938,300.625 296.203125,300.625 C284.578125,300.625 275.144531,310.050781 275.144531,321.683594 Z"></path>
                <path d="M249.507812,330.652344 C249.507812,342.1875 258.851562,351.53125 270.386719,351.53125 C281.914062,351.53125 291.257812,342.1875 291.257812,330.652344 C291.257812,319.128906 281.914062,309.78125 270.386719,309.78125 C258.851562,309.78125 249.507812,319.128906 249.507812,330.652344 Z"></path>
                <path d="M224.605469,339.441406 C224.605469,350.367188 233.457031,359.222656 244.386719,359.222656 C255.304688,359.222656 264.15625,350.367188 264.15625,339.441406 C264.15625,328.523438 255.304688,319.671875 244.386719,319.671875 C233.457031,319.671875 224.605469,328.523438 224.605469,339.441406 Z"></path>
                <path d="M200.617188,348.417969 C200.617188,358.230469 208.566406,366.179688 218.375,366.179688 C228.191406,366.179688 236.140625,358.230469 236.140625,348.417969 C236.140625,338.609375 228.191406,330.652344 218.375,330.652344 C208.566406,330.652344 200.617188,338.609375 200.617188,348.417969 Z"></path>
                <path d="M176.804688,357.386719 C176.804688,365.988281 183.777344,372.957031 192.371094,372.957031 C200.972656,372.957031 207.9375,365.988281 207.9375,357.386719 C207.9375,348.796875 200.972656,341.828125 192.371094,341.828125 C183.777344,341.828125 176.804688,348.796875 176.804688,357.386719 Z"></path>
                <path d="M153.179688,366.367188 C153.179688,373.644531 159.089844,379.554688 166.371094,379.554688 C173.648438,379.554688 179.558594,373.644531 179.558594,366.367188 C179.558594,359.085938 173.648438,353.175781 166.371094,353.175781 C159.089844,353.175781 153.179688,359.085938 153.179688,366.367188 Z"></path>
                <path d="M129.746094,375.335938 C129.746094,381.308594 134.582031,386.144531 140.546875,386.144531 C146.519531,386.144531 151.355469,381.308594 151.355469,375.335938 C151.355469,369.371094 146.519531,364.53125 140.546875,364.53125 C134.582031,364.53125 129.746094,369.371094 129.746094,375.335938 Z"></path>
                <path d="M106.308594,384.3125 C106.308594,388.863281 109.992188,392.554688 114.542969,392.554688 C119.09375,392.554688 122.789062,388.863281 122.789062,384.3125 C122.789062,379.761719 119.09375,376.066406 114.542969,376.066406 C109.992188,376.066406 106.308594,379.761719 106.308594,384.3125 Z"></path>
                <path d="M83.050781,393.289062 C83.050781,396.320312 85.511719,398.777344 88.542969,398.777344 C91.574219,398.777344 94.03125,396.320312 94.03125,393.289062 C94.03125,390.25 91.574219,387.789062 88.542969,387.789062 C85.511719,387.789062 83.050781,390.25 83.050781,393.289062 Z"></path>
                <path d="M59.605469,402.078125 C59.605469,403.695312 60.921875,405.003906 62.539062,405.003906 C64.15625,405.003906 65.472656,403.695312 65.472656,402.078125 C65.472656,400.460938 64.15625,399.144531 62.539062,399.144531 C60.921875,399.144531 59.605469,400.460938 59.605469,402.078125 Z"></path>
                <path d="M510.273438,276.082031 C510.273438,277.601562 511.507812,278.835938 513.027344,278.835938 C514.539062,278.835938 515.773438,277.601562 515.773438,276.082031 C515.773438,274.570312 514.539062,273.335938 513.027344,273.335938 C511.507812,273.335938 510.273438,274.570312 510.273438,276.082031 Z"></path>
                <path d="M481.714844,285.058594 C481.714844,287.992188 484.09375,290.371094 487.027344,290.371094 C489.960938,290.371094 492.328125,287.992188 492.328125,285.058594 C492.328125,282.125 489.960938,279.746094 487.027344,279.746094 C484.09375,279.746094 481.714844,282.125 481.714844,285.058594 Z"></path>
                <path d="M453.324219,294.027344 C453.324219,298.273438 456.769531,301.726562 461.015625,301.726562 C465.261719,301.726562 468.714844,298.273438 468.714844,294.027344 C468.714844,289.78125 465.261719,286.335938 461.015625,286.335938 C456.769531,286.335938 453.324219,289.78125 453.324219,294.027344 Z"></path>
                <path d="M424.945312,302.816406 C424.945312,308.378906 429.449219,312.894531 435.011719,312.894531 C440.574219,312.894531 445.089844,308.378906 445.089844,302.816406 C445.089844,297.253906 440.574219,292.75 435.011719,292.75 C429.449219,292.75 424.945312,297.253906 424.945312,302.816406 Z"></path>
                <path d="M396.742188,311.792969 C396.742188,318.671875 402.3125,324.25 409.199219,324.25 C416.074219,324.25 421.644531,318.671875 421.644531,311.792969 C421.644531,304.917969 416.074219,299.339844 409.199219,299.339844 C402.3125,299.339844 396.742188,304.917969 396.742188,311.792969 Z"></path>
                <path d="M368.71875,320.761719 C368.71875,328.757812 375.203125,335.230469 383.1875,335.230469 C391.179688,335.230469 397.65625,328.757812 397.65625,320.761719 C397.65625,312.777344 391.179688,306.304688 383.1875,306.304688 C375.203125,306.304688 368.71875,312.777344 368.71875,320.761719 Z"></path>
                <path d="M340.882812,329.742188 C340.882812,338.746094 348.1875,346.042969 357.183594,346.042969 C366.1875,346.042969 373.484375,338.746094 373.484375,329.742188 C373.484375,320.738281 366.1875,313.441406 357.183594,313.441406 C348.1875,313.441406 340.882812,320.738281 340.882812,329.742188 Z"></path>
                <path d="M313.601562,338.710938 C313.601562,348.417969 321.472656,356.296875 331.183594,356.296875 C340.894531,356.296875 348.761719,348.417969 348.761719,338.710938 C348.761719,329.007812 340.894531,321.128906 331.183594,321.128906 C321.472656,321.128906 313.601562,329.007812 313.601562,338.710938 Z"></path>
                <path d="M286.867188,347.6875 C286.867188,357.800781 295.066406,366 305.179688,366 C315.292969,366 323.492188,357.800781 323.492188,347.6875 C323.492188,337.574219 315.292969,329.375 305.179688,329.375 C295.066406,329.375 286.867188,337.574219 286.867188,347.6875 Z"></path>
                <path d="M261.230469,356.476562 C261.230469,366.492188 269.339844,374.609375 279.355469,374.609375 C289.371094,374.609375 297.488281,366.492188 297.488281,356.476562 C297.488281,346.460938 289.371094,338.351562 279.355469,338.351562 C269.339844,338.351562 261.230469,346.460938 261.230469,356.476562 Z"></path>
                <path d="M235.953125,365.453125 C235.953125,375.058594 243.75,382.84375 253.355469,382.84375 C262.964844,382.84375 270.753906,375.058594 270.753906,365.453125 C270.753906,355.839844 262.964844,348.054688 253.355469,348.054688 C243.75,348.054688 235.953125,355.839844 235.953125,365.453125 Z"></path>
                <path d="M211.417969,374.421875 C211.417969,383.222656 218.554688,390.355469 227.351562,390.355469 C236.148438,390.355469 243.285156,383.222656 243.285156,374.421875 C243.285156,365.625 236.148438,358.488281 227.351562,358.488281 C218.554688,358.488281 211.417969,365.625 211.417969,374.421875 Z"></path>
                <path d="M187.425781,383.398438 C187.425781,391.082031 193.660156,397.3125 201.347656,397.3125 C209.03125,397.3125 215.261719,391.082031 215.261719,383.398438 C215.261719,375.710938 209.03125,369.476562 201.347656,369.476562 C193.660156,369.476562 187.425781,375.710938 187.425781,383.398438 Z"></path>
                <path d="M163.4375,392.367188 C163.4375,398.941406 168.765625,404.269531 175.347656,404.269531 C181.917969,404.269531 187.25,398.941406 187.25,392.367188 C187.25,385.796875 181.917969,380.464844 175.347656,380.464844 C168.765625,380.464844 163.4375,385.796875 163.4375,392.367188 Z"></path>
                <path d="M139.8125,401.34375 C139.8125,406.601562 144.078125,410.867188 149.335938,410.867188 C154.601562,410.867188 158.859375,406.601562 158.859375,401.34375 C158.859375,396.078125 154.601562,391.824219 149.335938,391.824219 C144.078125,391.824219 139.8125,396.078125 139.8125,401.34375 Z"></path>
                <path d="M116.375,410.136719 C116.375,414.078125 119.578125,417.269531 123.519531,417.269531 C127.464844,417.269531 130.65625,414.078125 130.65625,410.136719 C130.65625,406.191406 127.464844,402.992188 123.519531,402.992188 C119.578125,402.992188 116.375,406.191406 116.375,410.136719 Z"></path>
                <path d="M92.941406,419.105469 C92.941406,421.632812 94.988281,423.683594 97.519531,423.683594 C100.039062,423.683594 102.097656,421.632812 102.097656,419.105469 C102.097656,416.574219 100.039062,414.527344 97.519531,414.527344 C94.988281,414.527344 92.941406,416.574219 92.941406,419.105469 Z"></path>
                <path d="M69.496094,428.082031 C69.496094,429.191406 70.398438,430.09375 71.507812,430.09375 C72.625,430.09375 73.527344,429.191406 73.527344,428.082031 C73.527344,426.964844 72.625,426.058594 71.507812,426.058594 C70.398438,426.058594 69.496094,426.964844 69.496094,428.082031 Z"></path>
                <path d="M520.351562,302.085938 C520.351562,302.996094 521.085938,303.738281 521.996094,303.738281 C522.910156,303.738281 523.652344,302.996094 523.652344,302.085938 C523.652344,301.179688 522.910156,300.4375 521.996094,300.4375 C521.085938,300.4375 520.351562,301.179688 520.351562,302.085938 Z"></path>
                <path d="M491.960938,311.0625 C491.960938,313.289062 493.769531,315.09375 495.996094,315.09375 C498.222656,315.09375 500.027344,313.289062 500.027344,311.0625 C500.027344,308.835938 498.222656,307.027344 495.996094,307.027344 C493.769531,307.027344 491.960938,308.835938 491.960938,311.0625 Z"></path>
                <path d="M463.582031,319.851562 C463.582031,323.390625 466.453125,326.261719 469.992188,326.261719 C473.535156,326.261719 476.402344,323.390625 476.402344,319.851562 C476.402344,316.308594 473.535156,313.441406 469.992188,313.441406 C466.453125,313.441406 463.582031,316.308594 463.582031,319.851562 Z"></path>
                <path d="M435.378906,328.828125 C435.378906,333.578125 439.234375,337.429688 443.988281,337.429688 C448.738281,337.429688 452.59375,333.578125 452.59375,328.828125 C452.59375,324.070312 448.738281,320.21875 443.988281,320.21875 C439.234375,320.21875 435.378906,324.070312 435.378906,328.828125 Z"></path>
                <path d="M407.363281,337.796875 C407.363281,343.664062 412.121094,348.417969 417.988281,348.417969 C423.851562,348.417969 428.601562,343.664062 428.601562,337.796875 C428.601562,331.929688 423.851562,327.175781 417.988281,327.175781 C412.121094,327.175781 407.363281,331.929688 407.363281,337.796875 Z"></path>
                <path d="M379.707031,346.773438 C379.707031,353.652344 385.289062,359.222656 392.164062,359.222656 C399.039062,359.222656 404.621094,353.652344 404.621094,346.773438 C404.621094,339.890625 399.039062,334.320312 392.164062,334.320312 C385.289062,334.320312 379.707031,339.890625 379.707031,346.773438 Z"></path>
                <path d="M352.238281,355.742188 C352.238281,363.433594 358.472656,369.664062 366.160156,369.664062 C373.84375,369.664062 380.074219,363.433594 380.074219,355.742188 C380.074219,348.054688 373.84375,341.828125 366.160156,341.828125 C358.472656,341.828125 352.238281,348.054688 352.238281,355.742188 Z"></path>
                <path d="M325.136719,364.71875 C325.136719,373.007812 331.863281,379.734375 340.160156,379.734375 C348.449219,379.734375 355.171875,373.007812 355.171875,364.71875 C355.171875,356.421875 348.449219,349.699219 340.160156,349.699219 C331.863281,349.699219 325.136719,356.421875 325.136719,364.71875 Z"></path>
                <path d="M298.589844,373.511719 C298.589844,382.101562 305.554688,389.070312 314.148438,389.070312 C322.75,389.070312 329.714844,382.101562 329.714844,373.511719 C329.714844,364.910156 322.75,357.941406 314.148438,357.941406 C305.554688,357.941406 298.589844,364.910156 298.589844,373.511719 Z"></path>
                <path d="M272.578125,382.480469 C272.578125,391.082031 279.554688,398.046875 288.144531,398.046875 C296.746094,398.046875 303.714844,391.082031 303.714844,382.480469 C303.714844,373.886719 296.746094,366.910156 288.144531,366.910156 C279.554688,366.910156 272.578125,373.886719 272.578125,382.480469 Z"></path>
                <path d="M247.496094,391.457031 C247.496094,399.648438 254.132812,406.289062 262.332031,406.289062 C270.523438,406.289062 277.15625,399.648438 277.15625,391.457031 C277.15625,383.265625 270.523438,376.621094 262.332031,376.621094 C254.132812,376.621094 247.496094,383.265625 247.496094,391.457031 Z"></path>
                <path d="M222.773438,400.425781 C222.773438,407.910156 228.835938,413.980469 236.320312,413.980469 C243.804688,413.980469 249.875,407.910156 249.875,400.425781 C249.875,392.941406 243.804688,386.878906 236.320312,386.878906 C228.835938,386.878906 222.773438,392.941406 222.773438,400.425781 Z"></path>
                <path d="M198.417969,409.402344 C198.417969,415.972656 203.746094,421.304688 210.316406,421.304688 C216.890625,421.304688 222.21875,415.972656 222.21875,409.402344 C222.21875,402.828125 216.890625,397.5 210.316406,397.5 C203.746094,397.5 198.417969,402.828125 198.417969,409.402344 Z"></path>
                <path d="M174.246094,418.371094 C174.246094,423.933594 178.753906,428.449219 184.316406,428.449219 C189.875,428.449219 194.382812,423.933594 194.382812,418.371094 C194.382812,412.808594 189.875,408.300781 184.316406,408.300781 C178.753906,408.300781 174.246094,412.808594 174.246094,418.371094 Z"></path>
                <path d="M150.257812,427.160156 C150.257812,431.613281 153.859375,435.214844 158.3125,435.214844 C162.765625,435.214844 166.371094,431.613281 166.371094,427.160156 C166.371094,422.714844 162.765625,419.105469 158.3125,419.105469 C153.859375,419.105469 150.257812,422.714844 150.257812,427.160156 Z"></path>
                <path d="M126.632812,436.136719 C126.632812,439.265625 129.171875,441.816406 132.308594,441.816406 C135.441406,441.816406 137.988281,439.265625 137.988281,436.136719 C137.988281,433 135.441406,430.460938 132.308594,430.460938 C129.171875,430.460938 126.632812,433 126.632812,436.136719 Z"></path>
                <path d="M103.1875,445.105469 C103.1875,446.929688 104.664062,448.40625 106.488281,448.40625 C108.3125,448.40625 109.785156,446.929688 109.785156,445.105469 C109.785156,443.289062 108.3125,441.816406 106.488281,441.816406 C104.664062,441.816406 103.1875,443.289062 103.1875,445.105469 Z"></path>
                <path d="M79.574219,454.082031 C79.574219,454.585938 79.976562,454.996094 80.484375,454.996094 C80.984375,454.996094 81.398438,454.585938 81.398438,454.082031 C81.398438,453.574219 80.984375,453.164062 80.484375,453.164062 C79.976562,453.164062 79.574219,453.574219 79.574219,454.082031 Z"></path>
                <path d="M502.40625,336.886719 C502.40625,338.296875 503.550781,339.441406 504.972656,339.441406 C506.386719,339.441406 507.53125,338.296875 507.53125,336.886719 C507.53125,335.464844 506.386719,334.320312 504.972656,334.320312 C503.550781,334.320312 502.40625,335.464844 502.40625,336.886719 Z"></path>
                <path d="M474.203125,345.855469 C474.203125,348.484375 476.332031,350.621094 478.960938,350.621094 C481.589844,350.621094 483.726562,348.484375 483.726562,345.855469 C483.726562,343.226562 481.589844,341.097656 478.960938,341.097656 C476.332031,341.097656 474.203125,343.226562 474.203125,345.855469 Z"></path>
                <path d="M446.179688,354.832031 C446.179688,358.570312 449.222656,361.601562 452.957031,361.601562 C456.703125,361.601562 459.734375,358.570312 459.734375,354.832031 C459.734375,351.085938 456.703125,348.054688 452.957031,348.054688 C449.222656,348.054688 446.179688,351.085938 446.179688,354.832031 Z"></path>
                <path d="M418.355469,363.800781 C418.355469,368.554688 422.199219,372.410156 426.957031,372.410156 C431.714844,372.410156 435.566406,368.554688 435.566406,363.800781 C435.566406,359.050781 431.714844,355.199219 426.957031,355.199219 C422.199219,355.199219 418.355469,359.050781 418.355469,363.800781 Z"></path>
                <path d="M390.699219,372.777344 C390.699219,378.4375 395.292969,383.03125 400.953125,383.03125 C406.613281,383.03125 411.210938,378.4375 411.210938,372.777344 C411.210938,367.109375 406.613281,362.519531 400.953125,362.519531 C395.292969,362.519531 390.699219,367.109375 390.699219,372.777344 Z"></path>
                <path d="M363.59375,381.746094 C363.59375,388.121094 368.765625,393.289062 375.128906,393.289062 C381.503906,393.289062 386.664062,388.121094 386.664062,381.746094 C386.664062,375.378906 381.503906,370.210938 375.128906,370.210938 C368.765625,370.210938 363.59375,375.378906 363.59375,381.746094 Z"></path>
                <path d="M336.671875,390.535156 C336.671875,397.410156 342.25,402.992188 349.128906,402.992188 C356.003906,402.992188 361.582031,397.410156 361.582031,390.535156 C361.582031,383.660156 356.003906,378.089844 349.128906,378.089844 C342.25,378.089844 336.671875,383.660156 336.671875,390.535156 Z"></path>
                <path d="M310.304688,399.511719 C310.304688,406.59375 316.042969,412.324219 323.125,412.324219 C330.207031,412.324219 335.949219,406.59375 335.949219,399.511719 C335.949219,392.429688 330.207031,386.691406 323.125,386.691406 C316.042969,386.691406 310.304688,392.429688 310.304688,399.511719 Z"></path>
                <path d="M284.300781,408.480469 C284.300781,415.5625 290.042969,421.304688 297.125,421.304688 C304.203125,421.304688 309.9375,415.5625 309.9375,408.480469 C309.9375,401.40625 304.203125,395.667969 297.125,395.667969 C290.042969,395.667969 284.300781,401.40625 284.300781,408.480469 Z"></path>
                <path d="M258.84375,417.457031 C258.84375,424.234375 264.34375,429.726562 271.121094,429.726562 C277.890625,429.726562 283.390625,424.234375 283.390625,417.457031 C283.390625,410.679688 277.890625,405.191406 271.121094,405.191406 C264.34375,405.191406 258.84375,410.679688 258.84375,417.457031 Z"></path>
                <path d="M234.128906,426.425781 C234.128906,432.597656 239.128906,437.605469 245.296875,437.605469 C251.46875,437.605469 256.464844,432.597656 256.464844,426.425781 C256.464844,420.257812 251.46875,415.257812 245.296875,415.257812 C239.128906,415.257812 234.128906,420.257812 234.128906,426.425781 Z"></path>
                <path d="M209.585938,435.40625 C209.585938,440.761719 213.929688,445.105469 219.296875,445.105469 C224.652344,445.105469 228.996094,440.761719 228.996094,435.40625 C228.996094,430.039062 224.652344,425.695312 219.296875,425.695312 C213.929688,425.695312 209.585938,430.039062 209.585938,435.40625 Z"></path>
                <path d="M185.226562,444.195312 C185.226562,448.648438 188.839844,452.25 193.292969,452.25 C197.738281,452.25 201.347656,448.648438 201.347656,444.195312 C201.347656,439.742188 197.738281,436.136719 193.292969,436.136719 C188.839844,436.136719 185.226562,439.742188 185.226562,444.195312 Z"></path>
                <path d="M161.058594,453.164062 C161.058594,456.605469 163.847656,459.394531 167.28125,459.394531 C170.722656,459.394531 173.511719,456.605469 173.511719,453.164062 C173.511719,449.730469 170.722656,446.9375 167.28125,446.9375 C163.847656,446.9375 161.058594,449.730469 161.058594,453.164062 Z"></path>
                <path d="M137.066406,462.140625 C137.066406,464.464844 138.953125,466.351562 141.277344,466.351562 C143.605469,466.351562 145.492188,464.464844 145.492188,462.140625 C145.492188,459.816406 143.605469,457.929688 141.277344,457.929688 C138.953125,457.929688 137.066406,459.816406 137.066406,462.140625 Z"></path>
                <path d="M113.445312,471.117188 C113.445312,472.128906 114.265625,472.941406 115.277344,472.941406 C116.285156,472.941406 117.109375,472.128906 117.109375,471.117188 C117.109375,470.097656 116.285156,469.285156 115.277344,469.285156 C114.265625,469.285156 113.445312,470.097656 113.445312,471.117188 Z"></path>
                <path d="M513.027344,362.886719 C513.027344,363.386719 513.441406,363.800781 513.941406,363.800781 C514.449219,363.800781 514.851562,363.386719 514.851562,362.886719 C514.851562,362.378906 514.449219,361.964844 513.941406,361.964844 C513.441406,361.964844 513.027344,362.378906 513.027344,362.886719 Z"></path>
                <path d="M485.003906,371.855469 C485.003906,373.472656 486.320312,374.789062 487.9375,374.789062 C489.558594,374.789062 490.871094,373.472656 490.871094,371.855469 C490.871094,370.238281 489.558594,368.933594 487.9375,368.933594 C486.320312,368.933594 485.003906,370.238281 485.003906,371.855469 Z"></path>
                <path d="M457.171875,380.832031 C457.171875,383.460938 459.308594,385.589844 461.9375,385.589844 C464.566406,385.589844 466.691406,383.460938 466.691406,380.832031 C466.691406,378.203125 464.566406,376.066406 461.9375,376.066406 C459.308594,376.066406 457.171875,378.203125 457.171875,380.832031 Z"></path>
                <path d="M429.523438,389.800781 C429.523438,393.34375 432.394531,396.214844 435.933594,396.214844 C439.464844,396.214844 442.335938,393.34375 442.335938,389.800781 C442.335938,386.269531 439.464844,383.398438 435.933594,383.398438 C432.394531,383.398438 429.523438,386.269531 429.523438,389.800781 Z"></path>
                <path d="M402.054688,398.777344 C402.054688,403.125 405.578125,406.65625 409.921875,406.65625 C414.277344,406.65625 417.800781,403.125 417.800781,398.777344 C417.800781,394.433594 414.277344,390.902344 409.921875,390.902344 C405.578125,390.902344 402.054688,394.433594 402.054688,398.777344 Z"></path>
                <path d="M374.953125,407.570312 C374.953125,412.523438 378.964844,416.539062 383.921875,416.539062 C388.882812,416.539062 392.898438,412.523438 392.898438,407.570312 C392.898438,402.617188 388.882812,398.589844 383.921875,398.589844 C378.964844,398.589844 374.953125,402.617188 374.953125,407.570312 Z"></path>
                <path d="M348.394531,416.539062 C348.394531,421.902344 352.742188,426.25 358.105469,426.25 C363.460938,426.25 367.808594,421.902344 367.808594,416.539062 C367.808594,411.179688 363.460938,406.835938 358.105469,406.835938 C352.742188,406.835938 348.394531,411.179688 348.394531,416.539062 Z"></path>
                <path d="M322.027344,425.515625 C322.027344,431.078125 326.53125,435.582031 332.09375,435.582031 C337.664062,435.582031 342.171875,431.078125 342.171875,425.515625 C342.171875,419.953125 337.664062,415.445312 332.09375,415.445312 C326.53125,415.445312 322.027344,419.953125 322.027344,425.515625 Z"></path>
                <path d="M296.023438,434.492188 C296.023438,440.054688 300.53125,444.5625 306.089844,444.5625 C311.652344,444.5625 316.167969,440.054688 316.167969,434.492188 C316.167969,428.921875 311.652344,424.414062 306.089844,424.414062 C300.53125,424.414062 296.023438,428.921875 296.023438,434.492188 Z"></path>
                <path d="M270.566406,443.460938 C270.566406,448.71875 274.832031,452.984375 280.089844,452.984375 C285.347656,452.984375 289.613281,448.71875 289.613281,443.460938 C289.613281,438.203125 285.347656,433.9375 280.089844,433.9375 C274.832031,433.9375 270.566406,438.203125 270.566406,443.460938 Z"></path>
                <path d="M245.476562,452.4375 C245.476562,457.1875 249.328125,461.039062 254.085938,461.039062 C258.84375,461.039062 262.699219,457.1875 262.699219,452.4375 C262.699219,447.679688 258.84375,443.828125 254.085938,443.828125 C249.328125,443.828125 245.476562,447.679688 245.476562,452.4375 Z"></path>
                <path d="M220.761719,461.226562 C220.761719,465.367188 224.125,468.730469 228.261719,468.730469 C232.414062,468.730469 235.773438,465.367188 235.773438,461.226562 C235.773438,457.078125 232.414062,453.71875 228.261719,453.71875 C224.125,453.71875 220.761719,457.078125 220.761719,461.226562 Z"></path>
                <path d="M196.214844,470.195312 C196.214844,473.53125 198.925781,476.242188 202.261719,476.242188 C205.597656,476.242188 208.304688,473.53125 208.304688,470.195312 C208.304688,466.859375 205.597656,464.152344 202.261719,464.152344 C198.925781,464.152344 196.214844,466.859375 196.214844,470.195312 Z"></path>
                <path d="M172.046875,479.171875 C172.046875,481.5 173.933594,483.386719 176.257812,483.386719 C178.582031,483.386719 180.46875,481.5 180.46875,479.171875 C180.46875,476.839844 178.582031,474.960938 176.257812,474.960938 C173.933594,474.960938 172.046875,476.839844 172.046875,479.171875 Z"></path>
                <path d="M147.878906,488.140625 C147.878906,489.457031 148.941406,490.519531 150.257812,490.519531 C151.570312,490.519531 152.636719,489.457031 152.636719,488.140625 C152.636719,486.828125 151.570312,485.765625 150.257812,485.765625 C148.941406,485.765625 147.878906,486.828125 147.878906,488.140625 Z"></path>
                <path d="M495.996094,397.867188 C495.996094,398.367188 496.40625,398.777344 496.90625,398.777344 C497.417969,398.777344 497.828125,398.367188 497.828125,397.867188 C497.828125,397.359375 497.417969,396.945312 496.90625,396.945312 C496.40625,396.945312 495.996094,397.359375 495.996094,397.867188 Z"></path>
                <path d="M468.347656,406.835938 C468.347656,408.25 469.492188,409.402344 470.90625,409.402344 C472.324219,409.402344 473.46875,408.25 473.46875,406.835938 C473.46875,405.421875 472.324219,404.269531 470.90625,404.269531 C469.492188,404.269531 468.347656,405.421875 468.347656,406.835938 Z"></path>
                <path d="M440.878906,415.8125 C440.878906,418.03125 442.675781,419.835938 444.902344,419.835938 C447.128906,419.835938 448.933594,418.03125 448.933594,415.8125 C448.933594,413.585938 447.128906,411.78125 444.902344,411.78125 C442.675781,411.78125 440.878906,413.585938 440.878906,415.8125 Z"></path>
                <path d="M413.589844,424.601562 C413.589844,427.535156 415.96875,429.914062 418.898438,429.914062 C421.832031,429.914062 424.210938,427.535156 424.210938,424.601562 C424.210938,421.671875 421.832031,419.292969 418.898438,419.292969 C415.96875,419.292969 413.589844,421.671875 413.589844,424.601562 Z"></path>
                <path d="M386.484375,433.570312 C386.484375,437.113281 389.355469,439.984375 392.898438,439.984375 C396.4375,439.984375 399.308594,437.113281 399.308594,433.570312 C399.308594,430.03125 396.4375,427.160156 392.898438,427.160156 C389.355469,427.160156 386.484375,430.03125 386.484375,433.570312 Z"></path>
                <path d="M360.117188,442.546875 C360.117188,446.382812 363.230469,449.503906 367.074219,449.503906 C370.917969,449.503906 374.03125,446.382812 374.03125,442.546875 C374.03125,438.703125 370.917969,435.582031 367.074219,435.582031 C363.230469,435.582031 360.117188,438.703125 360.117188,442.546875 Z"></path>
                <path d="M333.75,451.515625 C333.75,455.566406 337.03125,458.839844 341.070312,458.839844 C345.113281,458.839844 348.394531,455.566406 348.394531,451.515625 C348.394531,447.476562 345.113281,444.195312 341.070312,444.195312 C337.03125,444.195312 333.75,447.476562 333.75,451.515625 Z"></path>
                <path d="M307.746094,460.496094 C307.746094,464.535156 311.019531,467.816406 315.070312,467.816406 C319.109375,467.816406 322.390625,464.535156 322.390625,460.496094 C322.390625,456.445312 319.109375,453.164062 315.070312,453.164062 C311.019531,453.164062 307.746094,456.445312 307.746094,460.496094 Z"></path>
                <path d="M282.101562,469.464844 C282.101562,473.308594 285.222656,476.417969 289.066406,476.417969 C292.902344,476.417969 296.023438,473.308594 296.023438,469.464844 C296.023438,465.617188 292.902344,462.507812 289.066406,462.507812 C285.222656,462.507812 282.101562,465.617188 282.101562,469.464844 Z"></path>
                <path d="M257.019531,478.253906 C257.019531,481.589844 259.71875,484.296875 263.054688,484.296875 C266.398438,484.296875 269.101562,481.589844 269.101562,478.253906 C269.101562,474.917969 266.398438,472.207031 263.054688,472.207031 C259.71875,472.207031 257.019531,474.917969 257.019531,478.253906 Z"></path>
                <path d="M231.929688,487.230469 C231.929688,490.054688 234.226562,492.355469 237.054688,492.355469 C239.886719,492.355469 242.1875,490.054688 242.1875,487.230469 C242.1875,484.394531 239.886719,482.097656 237.054688,482.097656 C234.226562,482.097656 231.929688,484.394531 231.929688,487.230469 Z"></path>
                <path d="M207.574219,496.199219 C207.574219,498.21875 209.207031,499.863281 211.238281,499.863281 C213.257812,499.863281 214.894531,498.21875 214.894531,496.199219 C214.894531,494.179688 213.257812,492.542969 211.238281,492.542969 C209.207031,492.542969 207.574219,494.179688 207.574219,496.199219 Z"></path>
                <path d="M183.035156,505.175781 C183.035156,506.390625 184.019531,507.375 185.226562,507.375 C186.441406,507.375 187.425781,506.390625 187.425781,505.175781 C187.425781,503.960938 186.441406,502.976562 185.226562,502.976562 C184.019531,502.976562 183.035156,503.960938 183.035156,505.175781 Z"></path>
                <path d="M452.226562,441.628906 C452.226562,442.539062 452.96875,443.28125 453.878906,443.28125 C454.78125,443.28125 455.523438,442.539062 455.523438,441.628906 C455.523438,440.714844 454.78125,439.984375 453.878906,439.984375 C452.96875,439.984375 452.226562,440.714844 452.226562,441.628906 Z"></path>
                <path d="M424.945312,450.605469 C424.945312,452.222656 426.257812,453.527344 427.867188,453.527344 C429.488281,453.527344 430.800781,452.222656 430.800781,450.605469 C430.800781,448.988281 429.488281,447.671875 427.867188,447.671875 C426.257812,447.671875 424.945312,448.988281 424.945312,450.605469 Z"></path>
                <path d="M398.207031,459.574219 C398.207031,461.59375 399.84375,463.238281 401.867188,463.238281 C403.894531,463.238281 405.53125,461.59375 405.53125,459.574219 C405.53125,457.554688 403.894531,455.917969 401.867188,455.917969 C399.84375,455.917969 398.207031,457.554688 398.207031,459.574219 Z"></path>
                <path d="M371.472656,468.550781 C371.472656,470.972656 373.441406,472.941406 375.863281,472.941406 C378.296875,472.941406 380.261719,470.972656 380.261719,468.550781 C380.261719,466.117188 378.296875,464.152344 375.863281,464.152344 C373.441406,464.152344 371.472656,466.117188 371.472656,468.550781 Z"></path>
                <path d="M345.460938,477.519531 C345.460938,480.050781 347.519531,482.097656 350.039062,482.097656 C352.570312,482.097656 354.617188,480.050781 354.617188,477.519531 C354.617188,474.996094 352.570312,472.941406 350.039062,472.941406 C347.519531,472.941406 345.460938,474.996094 345.460938,477.519531 Z"></path>
                <path d="M319.460938,486.496094 C319.460938,489.027344 321.515625,491.074219 324.039062,491.074219 C326.566406,491.074219 328.617188,489.027344 328.617188,486.496094 C328.617188,483.964844 326.566406,481.917969 324.039062,481.917969 C321.515625,481.917969 319.460938,483.964844 319.460938,486.496094 Z"></path>
                <path d="M293.824219,495.285156 C293.824219,497.613281 295.710938,499.5 298.035156,499.5 C300.359375,499.5 302.246094,497.613281 302.246094,495.285156 C302.246094,492.960938 300.359375,491.074219 298.035156,491.074219 C295.710938,491.074219 293.824219,492.960938 293.824219,495.285156 Z"></path>
                <path d="M268.554688,504.253906 C268.554688,506.175781 270.109375,507.742188 272.03125,507.742188 C273.957031,507.742188 275.511719,506.175781 275.511719,504.253906 C275.511719,502.332031 273.957031,500.777344 272.03125,500.777344 C270.109375,500.777344 268.554688,502.332031 268.554688,504.253906 Z"></path>
                <path d="M243.464844,513.234375 C243.464844,514.644531 244.609375,515.800781 246.03125,515.800781 C247.441406,515.800781 248.597656,514.644531 248.597656,513.234375 C248.597656,511.820312 247.441406,510.667969 246.03125,510.667969 C244.609375,510.667969 243.464844,511.820312 243.464844,513.234375 Z"></path>
                <path d="M218.742188,522.199219 C218.742188,522.917969 219.320312,523.488281 220.027344,523.488281 C220.734375,523.488281 221.308594,522.917969 221.308594,522.199219 C221.308594,521.496094 220.734375,520.921875 220.027344,520.921875 C219.320312,520.921875 218.742188,521.496094 218.742188,522.199219 Z"></path>
                <path d="M409.742188,485.574219 C409.742188,486.183594 410.234375,486.675781 410.84375,486.675781 C411.453125,486.675781 411.941406,486.183594 411.941406,485.574219 C411.941406,484.976562 411.453125,484.484375 410.84375,484.484375 C410.234375,484.484375 409.742188,484.976562 409.742188,485.574219 Z"></path>
                <path d="M383.1875,494.554688 C383.1875,495.464844 383.929688,496.199219 384.839844,496.199219 C385.742188,496.199219 386.484375,495.464844 386.484375,494.554688 C386.484375,493.640625 385.742188,492.90625 384.839844,492.90625 C383.929688,492.90625 383.1875,493.640625 383.1875,494.554688 Z"></path>
                <path d="M357.003906,503.523438 C357.003906,504.542969 357.820312,505.355469 358.839844,505.355469 C359.847656,505.355469 360.664062,504.542969 360.664062,503.523438 C360.664062,502.511719 359.847656,501.699219 358.839844,501.699219 C357.820312,501.699219 357.003906,502.511719 357.003906,503.523438 Z"></path>
                <path d="M331.183594,512.320312 C331.183594,513.332031 332.003906,514.144531 333.015625,514.144531 C334.027344,514.144531 334.847656,513.332031 334.847656,512.320312 C334.847656,511.300781 334.027344,510.488281 333.015625,510.488281 C332.003906,510.488281 331.183594,511.300781 331.183594,512.320312 Z"></path>
                <path d="M305.546875,521.289062 C305.546875,522.101562 306.199219,522.753906 307.011719,522.753906 C307.816406,522.753906 308.480469,522.101562 308.480469,521.289062 C308.480469,520.484375 307.816406,519.824219 307.011719,519.824219 C306.199219,519.824219 305.546875,520.484375 305.546875,521.289062 Z"></path>
            </g>
        </g>
    </g>
</svg>