<?xml version="1.0" encoding="UTF-8"?>
<svg width="85px" height="56px" viewBox="0 0 85 56" version="1.1" xmlns="http://www.w3.org/2000/svg" xmlns:xlink="http://www.w3.org/1999/xlink">
    <!-- Generator: Sketch 52.6 (67491) - http://www.bohemiancoding.com/sketch -->
    <title>Shape</title>
    <desc>Created with Sketch.</desc>
    <g id="Page-1" stroke="none" stroke-width="1" fill="none" fill-rule="evenodd">
        <g id="chat-quote" fill="#B7BBC2" fill-rule="nonzero">
            <path d="M34.6449956,8.56193976 C30.1235571,1.59220397 21.4950029,-1.58390817 13.4715208,0.768127674 C5.44803866,3.12016352 -0.0417397455,10.4349805 0.000239087532,18.7178431 C0.00436571011,25.5186993 3.7490329,31.7778777 9.77171529,35.0507801 C15.7943977,38.3236824 23.1396396,38.0910862 28.9386675,34.4438345 C27.458412,38.7947667 24.7012951,43.4365067 20.1588319,48.0894316 C18.3490493,49.9426091 18.3996396,52.8971269 20.2718285,54.6885318 C22.1440174,56.4799367 25.1288451,56.4298601 26.9386277,54.5766826 C43.729922,37.3519126 41.5490876,18.6283638 34.6449956,8.58430959 L34.6449956,8.56193976 Z M79.8436342,8.56193976 C75.3221957,1.59220397 66.6936415,-1.58390817 58.6701594,0.768127674 C50.6466773,3.12016352 45.1568989,10.4349805 45.1988777,18.7178431 C45.2030043,25.5186993 48.9476715,31.7778777 54.9703539,35.0507801 C60.9930363,38.3236824 68.3382782,38.0910862 74.1373061,34.4438345 C72.6570507,38.7947667 69.8999337,43.4365067 65.3574705,48.0894316 C63.5476879,49.9426091 63.5982782,52.8971269 65.4704671,54.6885318 C67.342656,56.4799367 70.3274837,56.4298601 72.1372663,54.5766826 C88.9285606,37.3519126 86.7477263,18.6283638 79.8436342,8.58430959 L79.8436342,8.56193976 Z" id="Shape"></path>
        </g>
    </g>
</svg>