<svg xmlns="http://www.w3.org/2000/svg" width="810" viewBox="0 0 810 810" height="810" version="1.0"><defs><clipPath id="a"><path d="M 194 166 L 739 166 L 739 656.273438 L 194 656.273438 Z M 194 166"/></clipPath><clipPath id="b"><path d="M 345 100.523438 L 364 100.523438 L 364 119 L 345 119 Z M 345 100.523438"/></clipPath></defs><g clip-path="url(#a)"><path fill="#FFF" d="M 466.46875 166.390625 L 194.359375 656.273438 L 738.742188 656.273438 Z M 466.46875 166.390625"/></g><g clip-path="url(#b)"><path d="M 354.128906 118.8125 C 351.699219 118.8125 349.433594 117.839844 347.816406 116.222656 C 346.199219 114.605469 345.226562 112.175781 345.226562 109.910156 C 345.226562 109.261719 345.226562 108.777344 345.386719 108.128906 C 345.550781 107.484375 345.710938 106.996094 345.875 106.511719 C 346.035156 106.027344 346.359375 105.378906 346.683594 104.894531 C 347.007812 104.410156 347.332031 103.921875 347.816406 103.597656 C 349.921875 101.496094 352.996094 100.523438 355.910156 101.171875 C 356.558594 101.332031 357.042969 101.496094 357.527344 101.65625 C 358.015625 101.820312 358.660156 102.140625 359.148438 102.464844 C 359.632812 102.789062 360.117188 103.113281 360.441406 103.597656 C 360.765625 104.085938 361.25 104.410156 361.574219 104.894531 C 361.898438 105.378906 362.222656 105.863281 362.386719 106.511719 C 362.546875 106.996094 362.707031 107.644531 362.871094 108.128906 C 363.03125 108.777344 363.03125 109.261719 363.03125 109.910156 C 363.03125 112.339844 362.0625 114.605469 360.441406 116.222656 C 359.957031 116.546875 359.632812 117.03125 359.148438 117.355469 C 358.660156 117.679688 358.175781 118.003906 357.527344 118.164062 C 357.042969 118.328125 356.394531 118.488281 355.910156 118.648438 C 355.261719 118.648438 354.777344 118.8125 354.128906 118.8125 Z M 354.128906 118.8125"/></g><path d="M 595.644531 563.21875 C 593.21875 558.847656 594.835938 553.34375 599.207031 551.078125 C 603.578125 548.652344 609.082031 550.269531 611.347656 554.640625 C 613.777344 559.011719 612.15625 564.351562 607.785156 566.777344 C 606.492188 567.585938 604.871094 567.910156 603.414062 567.910156 C 600.339844 567.75 597.425781 566.128906 595.644531 563.21875 Z M 572.984375 522.273438 C 570.554688 517.902344 572.175781 512.402344 576.542969 510.136719 C 580.914062 507.707031 586.257812 509.324219 588.683594 513.695312 C 591.113281 518.066406 589.496094 523.40625 585.125 525.832031 C 583.828125 526.640625 582.210938 526.964844 580.753906 526.964844 C 577.679688 526.964844 574.601562 525.347656 572.984375 522.273438 Z M 550.320312 481.488281 C 547.894531 477.121094 549.511719 471.617188 553.71875 469.351562 C 558.089844 466.925781 563.59375 468.542969 565.859375 472.914062 C 568.289062 477.28125 566.671875 482.621094 562.460938 485.050781 C 561.003906 485.859375 559.546875 486.183594 558.089844 486.183594 C 555.015625 486.183594 551.941406 484.566406 550.320312 481.488281 Z M 527.660156 440.707031 C 525.230469 436.335938 526.847656 430.835938 531.058594 428.570312 C 535.429688 426.140625 540.933594 427.757812 543.199219 432.128906 C 545.625 436.5 544.007812 441.839844 539.636719 444.265625 C 538.34375 445.074219 536.722656 445.398438 535.265625 445.398438 C 532.351562 445.398438 529.277344 443.621094 527.660156 440.707031 Z M 504.996094 399.921875 C 502.566406 395.554688 504.1875 390.050781 508.558594 387.785156 C 512.929688 385.359375 518.269531 386.976562 520.699219 391.347656 C 523.125 395.714844 521.507812 401.054688 517.136719 403.484375 C 515.84375 404.292969 514.222656 404.617188 512.765625 404.617188 C 509.691406 404.453125 506.613281 402.835938 504.996094 399.921875 Z M 482.332031 359.140625 C 479.90625 354.769531 481.523438 349.269531 485.734375 347.003906 C 490.105469 344.574219 495.609375 346.195312 497.875 350.5625 C 500.300781 354.933594 498.683594 360.273438 494.472656 362.699219 C 493.015625 363.511719 491.5625 363.832031 490.105469 363.832031 C 487.027344 363.671875 483.953125 362.054688 482.332031 359.140625 Z M 459.671875 318.195312 C 457.242188 313.824219 458.863281 308.484375 463.070312 306.058594 C 467.441406 303.628906 472.945312 305.25 475.210938 309.617188 C 477.640625 313.988281 476.019531 319.328125 471.648438 321.757812 C 470.191406 322.566406 468.738281 322.890625 467.28125 322.890625 C 464.367188 322.890625 461.289062 321.269531 459.671875 318.195312 Z M 437.007812 277.414062 C 434.582031 273.042969 436.199219 267.703125 440.570312 265.273438 C 444.941406 262.847656 450.28125 264.464844 452.710938 268.835938 C 455.140625 273.203125 453.519531 278.546875 449.148438 280.972656 C 447.855469 281.78125 446.234375 282.105469 444.777344 282.105469 C 441.703125 282.105469 438.628906 280.324219 437.007812 277.414062 Z M 414.347656 236.628906 C 411.917969 232.261719 413.539062 226.917969 417.90625 224.492188 C 422.277344 222.0625 427.621094 223.683594 430.046875 228.050781 C 432.476562 232.421875 430.859375 237.761719 426.488281 240.191406 C 425.03125 241 423.574219 241.324219 422.117188 241.324219 C 419.039062 241.324219 415.964844 239.542969 414.347656 236.628906 Z M 391.683594 195.847656 C 389.257812 191.476562 390.875 185.972656 395.082031 183.707031 C 399.453125 181.28125 404.957031 182.898438 407.222656 187.269531 C 409.652344 191.636719 408.035156 196.980469 403.824219 199.40625 C 402.367188 200.214844 400.910156 200.539062 399.453125 200.539062 C 396.378906 200.378906 393.304688 198.757812 391.683594 195.847656 Z M 369.023438 155.0625 C 366.59375 150.695312 368.210938 145.191406 372.421875 142.925781 C 376.792969 140.496094 382.296875 142.117188 384.5625 146.484375 C 386.988281 150.855469 385.371094 156.195312 381 158.625 C 379.707031 159.433594 378.085938 159.757812 376.628906 159.757812 C 373.714844 159.59375 370.640625 157.976562 369.023438 155.0625 Z M 369.023438 155.0625"/><path d="M 626.238281 608.695312 C 625.59375 608.695312 625.105469 608.695312 624.460938 608.53125 C 623.972656 608.371094 623.328125 608.207031 622.839844 608.046875 C 622.355469 607.882812 621.707031 607.5625 621.222656 607.238281 C 620.738281 606.914062 620.25 606.589844 619.925781 606.105469 C 618.308594 604.484375 617.335938 602.058594 617.335938 599.792969 C 617.335938 599.144531 617.335938 598.660156 617.5 598.011719 C 617.660156 597.363281 617.824219 596.878906 617.984375 596.394531 C 618.144531 595.910156 618.46875 595.261719 618.792969 594.777344 C 619.117188 594.289062 619.441406 593.804688 619.925781 593.480469 C 620.25 592.996094 620.738281 592.671875 621.222656 592.347656 C 621.707031 592.023438 622.191406 591.699219 622.839844 591.539062 C 623.328125 591.378906 623.972656 591.214844 624.460938 591.054688 C 625.59375 590.730469 626.886719 590.730469 628.019531 591.054688 C 628.507812 591.214844 629.152344 591.378906 629.640625 591.539062 C 630.125 591.699219 630.773438 592.023438 631.257812 592.347656 C 631.742188 592.671875 632.230469 592.996094 632.554688 593.480469 C 633.039062 593.964844 633.363281 594.289062 633.6875 594.777344 C 634.011719 595.261719 634.332031 595.746094 634.496094 596.394531 C 634.65625 596.878906 634.820312 597.527344 634.980469 598.011719 C 635.144531 598.660156 635.144531 599.144531 635.144531 599.792969 C 635.144531 602.21875 634.171875 604.484375 632.554688 606.105469 C 630.933594 607.722656 628.667969 608.695312 626.238281 608.695312 Z M 626.238281 608.695312"/><path d="M 318.03125 183.871094 C 317.382812 183.871094 316.898438 183.871094 316.25 183.707031 C 315.601562 183.546875 315.117188 183.386719 314.632812 183.222656 C 314.144531 183.0625 313.5 182.738281 313.011719 182.414062 C 312.527344 182.089844 312.042969 181.765625 311.71875 181.28125 C 310.097656 179.664062 309.128906 177.234375 309.128906 174.96875 C 309.128906 172.542969 310.097656 170.277344 311.71875 168.65625 C 313.335938 167.039062 315.765625 166.066406 318.03125 166.066406 C 320.460938 166.066406 322.726562 167.039062 324.34375 168.65625 C 325.964844 170.277344 326.933594 172.703125 326.933594 174.96875 C 326.933594 175.617188 326.933594 176.101562 326.773438 176.75 C 326.609375 177.234375 326.449219 177.882812 326.285156 178.367188 C 326.125 178.851562 325.800781 179.5 325.476562 179.984375 C 325.152344 180.472656 324.828125 180.957031 324.34375 181.28125 C 323.859375 181.765625 323.535156 182.089844 323.050781 182.414062 C 322.5625 182.738281 322.078125 183.0625 321.429688 183.222656 C 320.945312 183.386719 320.296875 183.546875 319.8125 183.707031 C 319.164062 183.871094 318.515625 183.871094 318.03125 183.871094 Z M 318.03125 183.871094"/><path d="M 523.449219 565.320312 C 521.023438 560.953125 522.640625 555.449219 527.011719 553.183594 C 531.382812 550.757812 536.886719 552.375 539.152344 556.742188 C 541.578125 561.113281 539.960938 566.617188 535.589844 568.882812 C 534.296875 569.691406 532.675781 570.015625 531.21875 570.015625 C 528.144531 570.015625 525.070312 568.394531 523.449219 565.320312 Z M 502.082031 526.804688 C 499.65625 522.433594 501.273438 516.933594 505.644531 514.667969 C 510.015625 512.238281 515.519531 513.855469 517.785156 518.226562 C 520.210938 522.597656 518.59375 528.097656 514.222656 530.363281 C 512.929688 531.171875 511.308594 531.496094 509.851562 531.496094 C 506.777344 531.335938 503.703125 529.71875 502.082031 526.804688 Z M 480.878906 488.125 C 478.449219 483.753906 480.066406 478.414062 484.4375 475.988281 C 488.808594 473.558594 494.152344 475.179688 496.578125 479.546875 C 499.007812 483.917969 497.386719 489.417969 493.015625 491.683594 C 491.5625 492.496094 490.105469 492.816406 488.648438 492.816406 C 485.570312 492.816406 482.496094 491.039062 480.878906 488.125 Z M 459.507812 449.445312 C 457.082031 445.074219 458.699219 439.734375 463.070312 437.308594 C 467.441406 434.878906 472.945312 436.5 475.210938 440.867188 C 477.640625 445.238281 476.019531 450.578125 471.648438 453.007812 C 470.355469 453.816406 468.738281 454.140625 467.28125 454.140625 C 464.203125 454.140625 461.128906 452.519531 459.507812 449.445312 Z M 438.140625 410.929688 C 435.714844 406.558594 437.332031 401.054688 441.703125 398.789062 C 446.074219 396.363281 451.414062 397.980469 453.84375 402.351562 C 456.273438 406.71875 454.652344 412.222656 450.28125 414.488281 C 448.988281 415.296875 447.367188 415.621094 445.910156 415.621094 C 442.835938 415.621094 439.761719 413.839844 438.140625 410.929688 Z M 416.773438 372.25 C 414.347656 367.878906 415.964844 362.378906 420.335938 360.113281 C 424.707031 357.683594 430.210938 359.300781 432.476562 363.671875 C 434.90625 368.042969 433.285156 373.542969 428.914062 375.808594 C 427.457031 376.617188 426 376.941406 424.542969 376.941406 C 421.46875 376.941406 418.394531 375.324219 416.773438 372.25 Z M 395.40625 333.730469 C 392.980469 329.363281 394.597656 323.859375 398.96875 321.59375 C 403.339844 319.167969 408.84375 320.785156 411.109375 325.15625 C 413.539062 329.523438 411.917969 334.863281 407.546875 337.292969 C 406.253906 338.101562 404.632812 338.425781 403.175781 338.425781 C 400.101562 338.261719 397.027344 336.644531 395.40625 333.730469 Z M 374.039062 295.054688 C 371.613281 290.683594 373.230469 285.179688 377.601562 282.914062 C 381.972656 280.488281 387.3125 282.105469 389.742188 286.476562 C 392.167969 290.84375 390.550781 296.347656 386.179688 298.613281 C 384.886719 299.421875 383.265625 299.746094 381.808594 299.746094 C 378.734375 299.746094 375.820312 297.964844 374.039062 295.054688 Z M 352.835938 256.535156 C 350.40625 252.164062 352.023438 246.664062 356.394531 244.398438 C 360.765625 241.96875 366.269531 243.589844 368.535156 247.957031 C 370.964844 252.328125 369.34375 257.832031 364.976562 260.097656 C 363.519531 260.90625 362.0625 261.230469 360.605469 261.230469 C 357.527344 261.066406 354.453125 259.449219 352.835938 256.535156 Z M 331.46875 217.855469 C 329.039062 213.488281 330.65625 207.984375 335.027344 205.71875 C 339.398438 203.289062 344.902344 204.910156 347.167969 209.277344 C 349.597656 213.648438 347.976562 218.988281 343.609375 221.417969 C 342.3125 222.226562 340.695312 222.550781 339.238281 222.550781 C 336.160156 222.550781 333.085938 220.769531 331.46875 217.855469 Z M 331.46875 217.855469"/><path d="M 552.585938 608.695312 C 550.160156 608.695312 547.894531 607.722656 546.273438 606.105469 C 545.789062 605.617188 545.464844 605.296875 545.140625 604.808594 C 544.816406 604.324219 544.492188 603.839844 544.332031 603.191406 C 544.167969 602.707031 543.847656 602.058594 543.847656 601.574219 C 543.847656 601.085938 543.683594 600.441406 543.683594 599.792969 C 543.683594 599.144531 543.683594 598.660156 543.847656 598.011719 C 544.007812 597.363281 544.167969 596.878906 544.332031 596.394531 C 544.492188 595.910156 544.816406 595.261719 545.140625 594.777344 C 545.464844 594.289062 545.789062 593.804688 546.273438 593.480469 C 548.378906 591.378906 551.453125 590.40625 554.367188 591.054688 C 554.855469 591.214844 555.5 591.378906 555.988281 591.539062 C 556.472656 591.863281 557.121094 592.023438 557.605469 592.347656 C 558.089844 592.671875 558.578125 592.996094 558.902344 593.480469 C 559.386719 593.964844 559.710938 594.289062 560.035156 594.777344 C 560.355469 595.261719 560.679688 595.746094 560.84375 596.394531 C 561.003906 596.878906 561.167969 597.527344 561.328125 598.011719 C 561.492188 598.660156 561.492188 599.144531 561.492188 599.792969 C 561.492188 600.441406 561.492188 600.925781 561.328125 601.574219 C 561.167969 602.21875 561.003906 602.707031 560.84375 603.191406 C 560.679688 603.675781 560.355469 604.324219 560.035156 604.808594 C 559.710938 605.296875 559.386719 605.78125 558.902344 606.105469 C 558.578125 606.589844 558.089844 606.914062 557.605469 607.238281 C 557.121094 607.5625 556.632812 607.882812 555.988281 608.046875 C 555.5 608.207031 554.855469 608.371094 554.367188 608.53125 C 553.882812 608.53125 553.234375 608.695312 552.585938 608.695312 Z M 552.585938 608.695312"/><path d="M 280.800781 250.710938 C 278.371094 250.710938 276.105469 249.738281 274.488281 248.121094 C 272.867188 246.5 271.898438 244.074219 271.898438 241.808594 C 271.898438 239.378906 272.867188 237.113281 274.488281 235.496094 C 276.105469 233.878906 278.535156 232.90625 280.800781 232.90625 C 283.226562 232.90625 285.496094 233.878906 287.113281 235.496094 C 288.730469 237.113281 289.703125 239.542969 289.703125 241.808594 C 289.703125 242.457031 289.703125 242.941406 289.542969 243.589844 C 289.378906 244.234375 289.21875 244.722656 289.054688 245.207031 C 288.894531 245.691406 288.570312 246.339844 288.246094 246.824219 C 287.921875 247.3125 287.597656 247.796875 287.113281 248.121094 C 285.496094 249.738281 283.226562 250.710938 280.800781 250.710938 Z M 280.800781 250.710938"/><path d="M 444.292969 564.1875 C 442.027344 559.820312 443.644531 554.316406 448.015625 552.050781 C 452.386719 549.625 457.890625 551.402344 460.15625 555.609375 C 462.585938 559.980469 460.804688 565.484375 456.433594 567.75 C 455.140625 568.394531 453.683594 568.882812 452.226562 568.882812 C 448.988281 568.882812 445.910156 567.101562 444.292969 564.1875 Z M 422.765625 524.375 C 420.496094 520.007812 422.117188 514.503906 426.488281 512.238281 C 430.859375 509.8125 436.363281 511.429688 438.628906 515.800781 C 441.054688 520.167969 439.4375 525.671875 435.066406 527.9375 C 433.773438 528.585938 432.316406 529.070312 430.859375 529.070312 C 427.621094 529.070312 424.382812 527.289062 422.765625 524.375 Z M 401.398438 484.566406 C 398.96875 480.195312 400.75 474.691406 405.121094 472.425781 C 409.492188 470.160156 414.992188 471.78125 417.261719 476.148438 C 419.6875 480.519531 417.90625 486.019531 413.699219 488.285156 C 412.402344 488.933594 410.945312 489.417969 409.492188 489.417969 C 406.089844 489.257812 403.015625 487.640625 401.398438 484.566406 Z M 380.027344 444.753906 C 377.601562 440.382812 379.382812 434.878906 383.589844 432.613281 C 387.960938 430.347656 393.464844 431.96875 395.730469 436.335938 C 398.160156 440.707031 396.378906 446.210938 392.167969 448.476562 C 390.875 449.121094 389.417969 449.609375 387.960938 449.609375 C 384.722656 449.609375 381.648438 447.828125 380.027344 444.753906 Z M 358.660156 405.101562 C 356.234375 400.734375 357.851562 395.230469 362.222656 392.964844 C 366.59375 390.699219 372.097656 392.316406 374.363281 396.6875 C 376.628906 401.054688 375.011719 406.558594 370.640625 408.824219 C 369.34375 409.472656 367.886719 409.957031 366.433594 409.957031 C 363.355469 409.796875 360.28125 408.015625 358.660156 405.101562 Z M 337.132812 365.289062 C 334.703125 360.921875 336.484375 355.417969 340.855469 353.152344 C 345.226562 350.726562 350.730469 352.503906 352.996094 356.875 C 355.261719 361.246094 353.644531 366.746094 349.273438 369.011719 C 347.976562 369.660156 346.519531 370.144531 345.0625 370.144531 C 341.828125 369.984375 338.75 368.363281 337.132812 365.289062 Z M 315.765625 325.476562 C 313.335938 321.109375 315.117188 315.605469 319.328125 313.339844 C 323.695312 310.914062 329.199219 312.691406 331.46875 317.0625 C 333.894531 321.433594 332.113281 326.933594 327.90625 329.199219 C 326.609375 330.007812 325.152344 330.332031 323.695312 330.332031 C 320.460938 330.171875 317.382812 328.554688 315.765625 325.476562 Z M 294.398438 285.828125 C 291.96875 281.457031 293.75 275.957031 297.957031 273.691406 C 302.328125 271.261719 307.832031 273.042969 310.097656 277.414062 C 312.527344 281.78125 310.746094 287.285156 306.375 289.550781 C 305.082031 290.359375 303.625 290.683594 302.167969 290.683594 C 299.09375 290.519531 296.015625 288.742188 294.398438 285.828125 Z M 294.398438 285.828125"/><path d="M 473.59375 608.695312 C 472.945312 608.695312 472.460938 608.695312 471.8125 608.53125 C 471.164062 608.371094 470.679688 608.207031 470.191406 608.046875 C 469.707031 607.882812 469.058594 607.5625 468.574219 607.238281 C 468.089844 606.914062 467.601562 606.589844 467.28125 606.105469 C 466.957031 605.617188 466.46875 605.296875 466.144531 604.808594 C 465.824219 604.324219 465.5 603.839844 465.335938 603.191406 C 465.175781 602.707031 465.011719 602.058594 464.851562 601.574219 C 464.691406 601.085938 464.691406 600.441406 464.691406 599.792969 C 464.691406 599.144531 464.691406 598.660156 464.851562 598.011719 C 465.011719 597.363281 465.175781 596.878906 465.335938 596.394531 C 465.5 595.910156 465.824219 595.261719 466.144531 594.777344 C 466.46875 594.289062 466.792969 593.804688 467.28125 593.480469 C 467.601562 592.996094 468.089844 592.671875 468.574219 592.347656 C 469.058594 592.023438 469.546875 591.699219 470.191406 591.539062 C 470.679688 591.378906 471.328125 591.214844 471.8125 591.054688 C 474.726562 590.40625 477.800781 591.378906 479.90625 593.480469 C 480.230469 593.804688 480.714844 594.289062 481.039062 594.777344 C 481.363281 595.261719 481.6875 595.746094 481.847656 596.394531 C 482.011719 596.878906 482.332031 597.527344 482.332031 598.011719 C 482.496094 598.660156 482.496094 599.144531 482.496094 599.792969 C 482.496094 600.441406 482.496094 600.925781 482.332031 601.574219 C 482.171875 602.21875 482.011719 602.707031 481.847656 603.191406 C 481.6875 603.675781 481.363281 604.324219 481.039062 604.808594 C 480.714844 605.296875 480.390625 605.78125 479.90625 606.105469 C 478.285156 607.722656 476.019531 608.695312 473.59375 608.695312 Z M 473.59375 608.695312"/><path d="M 238.550781 326.933594 C 236.121094 326.933594 233.855469 325.964844 232.238281 324.34375 C 230.617188 322.726562 229.648438 320.300781 229.648438 318.035156 C 229.648438 317.386719 229.648438 316.902344 229.808594 316.253906 C 229.972656 315.605469 230.132812 315.121094 230.296875 314.636719 C 230.617188 314.148438 230.78125 313.503906 231.105469 313.015625 C 231.429688 312.53125 231.753906 312.046875 232.238281 311.722656 C 232.5625 311.398438 233.046875 310.914062 233.53125 310.589844 C 234.019531 310.265625 234.503906 309.941406 235.152344 309.78125 C 235.636719 309.617188 236.285156 309.457031 236.769531 309.292969 C 237.902344 309.132812 239.035156 309.132812 240.332031 309.292969 C 240.816406 309.457031 241.464844 309.617188 241.949219 309.78125 C 242.4375 309.941406 243.082031 310.265625 243.570312 310.589844 C 244.054688 310.914062 244.539062 311.238281 244.863281 311.722656 C 245.1875 312.207031 245.671875 312.53125 245.996094 313.015625 C 246.320312 313.503906 246.644531 313.988281 246.804688 314.636719 C 246.96875 315.121094 247.128906 315.769531 247.292969 316.253906 C 247.453125 316.902344 247.453125 317.386719 247.453125 318.035156 C 247.453125 320.460938 246.484375 322.726562 244.863281 324.34375 C 244.378906 324.667969 244.054688 325.15625 243.570312 325.476562 C 243.082031 325.800781 242.597656 326.125 241.949219 326.289062 C 241.464844 326.449219 240.816406 326.609375 240.332031 326.773438 C 239.683594 326.933594 239.035156 326.933594 238.550781 326.933594 Z M 238.550781 326.933594"/><path d="M 361.414062 563.703125 C 358.984375 559.332031 360.605469 553.832031 364.976562 551.566406 C 369.34375 549.136719 374.847656 550.757812 377.117188 555.125 C 379.542969 559.496094 377.925781 564.996094 373.554688 567.261719 C 372.257812 568.074219 370.800781 568.394531 369.34375 568.394531 C 366.109375 568.394531 363.03125 566.617188 361.414062 563.703125 Z M 339.5625 523.40625 C 337.132812 519.035156 338.75 513.535156 343.121094 511.269531 C 347.492188 508.839844 352.996094 510.457031 355.261719 514.828125 C 357.691406 519.199219 356.070312 524.699219 351.699219 526.964844 C 350.40625 527.773438 348.949219 528.097656 347.492188 528.097656 C 344.253906 528.097656 341.179688 526.480469 339.5625 523.40625 Z M 317.707031 483.109375 C 315.28125 478.738281 316.898438 473.234375 321.269531 470.96875 C 325.640625 468.542969 331.144531 470.160156 333.410156 474.53125 C 335.835938 478.898438 334.21875 484.402344 329.847656 486.667969 C 328.554688 487.476562 327.097656 487.800781 325.640625 487.800781 C 322.5625 487.964844 319.488281 486.183594 317.707031 483.109375 Z M 296.015625 442.972656 C 293.589844 438.601562 295.207031 433.101562 299.578125 430.835938 C 303.949219 428.40625 309.453125 430.023438 311.71875 434.394531 C 314.144531 438.765625 312.527344 444.265625 308.15625 446.53125 C 306.863281 447.34375 305.40625 447.664062 303.949219 447.664062 C 300.710938 447.664062 297.636719 445.886719 296.015625 442.972656 Z M 274.164062 402.675781 C 271.734375 398.304688 273.355469 392.800781 277.722656 390.535156 C 282.09375 388.109375 287.597656 389.726562 289.863281 394.097656 C 292.292969 398.46875 290.675781 403.96875 286.304688 406.234375 C 285.007812 406.882812 283.550781 407.367188 282.09375 407.367188 C 278.859375 407.367188 275.78125 405.75 274.164062 402.675781 Z M 252.472656 362.378906 C 250.042969 358.007812 251.664062 352.503906 256.035156 350.238281 C 260.402344 347.8125 265.746094 349.429688 268.175781 353.800781 C 270.601562 358.167969 268.984375 363.671875 264.613281 365.9375 C 263.316406 366.746094 261.859375 367.070312 260.402344 367.070312 C 257.167969 367.230469 254.089844 365.453125 252.472656 362.378906 Z M 252.472656 362.378906"/><path d="M 391.035156 608.695312 C 388.609375 608.695312 386.34375 607.722656 384.722656 606.105469 C 384.238281 605.617188 383.914062 605.296875 383.589844 604.808594 C 383.265625 604.324219 382.941406 603.839844 382.78125 603.191406 C 382.621094 602.707031 382.457031 602.058594 382.296875 601.574219 C 382.132812 600.925781 382.132812 600.441406 382.132812 599.792969 C 382.132812 599.144531 382.132812 598.660156 382.296875 598.011719 C 382.457031 597.363281 382.621094 596.878906 382.78125 596.394531 C 382.941406 595.910156 383.265625 595.261719 383.589844 594.777344 C 383.914062 594.289062 384.238281 593.804688 384.722656 593.480469 C 386.34375 591.863281 388.769531 590.890625 391.035156 590.890625 C 393.464844 590.890625 395.730469 591.863281 397.351562 593.480469 C 397.835938 593.964844 398.160156 594.289062 398.484375 594.777344 C 398.804688 595.261719 399.128906 595.746094 399.292969 596.394531 C 399.453125 596.878906 399.617188 597.527344 399.777344 598.011719 C 399.941406 598.660156 399.941406 599.144531 399.941406 599.792969 C 399.941406 600.441406 399.941406 600.925781 399.777344 601.574219 C 399.617188 602.21875 399.453125 602.707031 399.292969 603.191406 C 399.128906 603.675781 398.804688 604.324219 398.484375 604.808594 C 398.160156 605.296875 397.835938 605.78125 397.351562 606.105469 C 397.027344 606.589844 396.539062 606.914062 396.054688 607.238281 C 395.570312 607.5625 395.082031 607.882812 394.4375 608.046875 C 393.949219 608.207031 393.304688 608.371094 392.816406 608.53125 C 392.167969 608.53125 391.683594 608.695312 391.035156 608.695312 Z M 391.035156 608.695312"/><path d="M 197.109375 401.378906 C 194.683594 401.378906 192.417969 400.410156 190.796875 398.789062 C 190.3125 398.304688 189.988281 397.980469 189.664062 397.496094 C 189.339844 397.011719 189.015625 396.523438 188.855469 395.878906 C 188.695312 395.390625 188.53125 394.746094 188.371094 394.257812 C 188.207031 393.613281 188.207031 393.125 188.207031 392.480469 C 188.207031 391.832031 188.207031 391.347656 188.371094 390.699219 C 188.53125 390.050781 188.695312 389.566406 188.855469 389.082031 C 189.015625 388.59375 189.339844 387.949219 189.664062 387.460938 C 189.988281 386.976562 190.3125 386.492188 190.796875 386.167969 C 192.417969 384.550781 194.84375 383.578125 197.109375 383.578125 C 199.539062 383.578125 201.804688 384.550781 203.425781 386.167969 C 205.042969 387.785156 206.015625 390.214844 206.015625 392.480469 C 206.015625 394.90625 205.042969 397.171875 203.425781 398.789062 C 201.804688 400.410156 199.539062 401.378906 197.109375 401.378906 Z M 197.109375 401.378906"/><path d="M 283.390625 562.570312 C 280.960938 558.199219 282.417969 552.859375 286.789062 550.269531 C 291.160156 547.84375 296.503906 549.300781 299.09375 553.667969 C 301.519531 558.039062 300.0625 563.378906 295.691406 565.96875 C 294.234375 566.777344 292.777344 567.101562 291.320312 567.101562 C 288.085938 567.101562 285.171875 565.484375 283.390625 562.570312 Z M 259.917969 521.140625 C 257.492188 516.769531 258.945312 511.269531 263.316406 508.839844 C 267.6875 506.414062 273.03125 507.867188 275.621094 512.238281 C 278.046875 516.609375 276.589844 522.109375 272.222656 524.539062 C 270.765625 525.347656 269.308594 525.671875 267.851562 525.671875 C 264.613281 525.671875 261.539062 524.054688 259.917969 521.140625 Z M 236.445312 479.710938 C 234.019531 475.339844 235.476562 470 239.847656 467.410156 C 244.214844 464.980469 249.558594 466.4375 252.148438 470.808594 C 254.578125 475.179688 253.121094 480.679688 248.75 483.109375 C 247.292969 483.917969 245.835938 484.242188 244.378906 484.242188 C 241.140625 484.242188 238.066406 482.621094 236.445312 479.710938 Z M 212.8125 438.277344 C 210.386719 433.910156 211.839844 428.570312 216.210938 425.980469 C 220.582031 423.550781 225.925781 425.007812 228.515625 429.378906 C 230.941406 433.746094 229.484375 439.089844 225.117188 441.675781 C 223.660156 442.488281 222.203125 442.808594 220.746094 442.808594 C 217.507812 442.808594 214.59375 441.191406 212.8125 438.277344 Z M 212.8125 438.277344"/><path d="M 314.792969 608.695312 C 314.144531 608.695312 313.660156 608.695312 313.011719 608.53125 C 312.367188 608.371094 311.878906 608.207031 311.394531 608.046875 C 310.910156 607.882812 310.261719 607.5625 309.777344 607.238281 C 309.289062 606.914062 308.804688 606.589844 308.480469 606.105469 C 307.996094 605.617188 307.671875 605.296875 307.347656 604.808594 C 307.023438 604.324219 306.699219 603.839844 306.539062 603.191406 C 306.375 602.707031 306.214844 602.058594 306.050781 601.574219 C 305.890625 600.925781 305.890625 600.441406 305.890625 599.792969 C 305.890625 599.144531 305.890625 598.660156 306.050781 598.011719 C 306.214844 597.363281 306.375 596.878906 306.539062 596.394531 C 306.699219 595.910156 307.023438 595.261719 307.347656 594.777344 C 307.671875 594.289062 307.996094 593.804688 308.480469 593.480469 C 308.804688 592.996094 309.289062 592.671875 309.777344 592.347656 C 310.261719 592.023438 310.746094 591.699219 311.394531 591.539062 C 311.878906 591.378906 312.527344 591.214844 313.011719 591.054688 C 314.144531 590.730469 315.28125 590.730469 316.574219 591.054688 C 317.058594 591.214844 317.707031 591.378906 318.191406 591.539062 C 318.679688 591.863281 319.328125 592.023438 319.8125 592.347656 C 320.296875 592.671875 320.78125 592.996094 321.105469 593.480469 C 321.429688 593.964844 321.917969 594.289062 322.238281 594.777344 C 322.5625 595.261719 322.886719 595.746094 323.050781 596.394531 C 323.210938 597.042969 323.375 597.527344 323.535156 598.011719 C 323.695312 598.660156 323.695312 599.144531 323.695312 599.792969 C 323.695312 600.441406 323.695312 600.925781 323.535156 601.574219 C 323.375 602.21875 323.210938 602.707031 323.050781 603.191406 C 322.886719 603.675781 322.5625 604.324219 322.238281 604.808594 C 321.917969 605.296875 321.59375 605.78125 321.105469 606.105469 C 319.488281 607.722656 317.222656 608.695312 314.792969 608.695312 Z M 314.792969 608.695312"/><path d="M 155.832031 475.824219 C 155.1875 475.824219 154.699219 475.824219 154.050781 475.664062 C 153.566406 475.5 152.917969 475.339844 152.433594 475.179688 C 151.949219 475.015625 151.300781 474.691406 150.816406 474.367188 C 150.328125 474.046875 149.84375 473.722656 149.519531 473.234375 C 149.195312 472.75 148.710938 472.425781 148.386719 471.941406 C 148.0625 471.457031 147.738281 470.96875 147.578125 470.324219 C 147.414062 469.835938 147.253906 469.191406 147.09375 468.703125 C 146.929688 468.058594 146.929688 467.570312 146.929688 466.925781 C 146.929688 464.496094 147.902344 462.230469 149.519531 460.613281 C 150.003906 460.128906 150.328125 459.804688 150.816406 459.480469 C 151.300781 459.15625 151.785156 458.832031 152.433594 458.671875 C 152.917969 458.507812 153.566406 458.347656 154.050781 458.183594 C 155.1875 457.859375 156.480469 457.859375 157.613281 458.183594 C 158.261719 458.347656 158.746094 458.507812 159.234375 458.671875 C 159.71875 458.832031 160.367188 459.15625 160.851562 459.480469 C 161.335938 459.804688 161.824219 460.128906 162.144531 460.613281 C 163.765625 462.230469 164.734375 464.660156 164.734375 466.925781 C 164.734375 469.191406 163.765625 471.617188 162.144531 473.234375 C 161.824219 473.558594 161.335938 474.046875 160.851562 474.367188 C 160.367188 474.691406 159.878906 475.015625 159.234375 475.179688 C 158.746094 475.339844 158.097656 475.664062 157.613281 475.664062 C 156.964844 475.664062 156.320312 475.824219 155.832031 475.824219 Z M 155.832031 475.824219"/><path d="M 199.378906 559.820312 C 196.949219 555.609375 198.40625 550.109375 202.613281 547.519531 C 206.824219 545.089844 212.328125 546.546875 214.917969 550.757812 C 217.34375 554.964844 215.886719 560.464844 211.679688 563.054688 C 210.222656 563.863281 208.765625 564.351562 207.148438 564.351562 C 204.070312 564.351562 201.15625 562.730469 199.378906 559.820312 Z M 173.800781 515.636719 C 171.375 511.429688 172.828125 505.925781 177.039062 503.335938 C 181.246094 500.910156 186.75 502.367188 189.339844 506.574219 C 191.769531 510.78125 190.3125 516.285156 186.105469 518.875 C 184.648438 519.683594 183.191406 520.007812 181.570312 520.007812 C 178.332031 520.007812 175.421875 518.386719 173.800781 515.636719 Z M 173.800781 515.636719"/><path d="M 232.886719 608.695312 C 232.238281 608.695312 231.753906 608.695312 231.105469 608.53125 C 230.617188 608.371094 229.972656 608.207031 229.484375 608.046875 C 229 607.882812 228.351562 607.5625 227.867188 607.238281 C 227.382812 606.914062 226.894531 606.589844 226.570312 606.105469 C 226.085938 605.617188 225.761719 605.296875 225.4375 604.808594 C 225.117188 604.324219 224.792969 603.839844 224.628906 603.191406 C 224.46875 602.707031 224.304688 602.058594 224.144531 601.574219 C 223.980469 600.925781 223.980469 600.441406 223.980469 599.792969 C 223.980469 599.144531 223.980469 598.660156 224.144531 598.011719 C 224.304688 597.363281 224.46875 596.878906 224.628906 596.394531 C 224.792969 595.910156 225.117188 595.261719 225.4375 594.777344 C 225.761719 594.289062 226.085938 593.804688 226.570312 593.480469 C 226.894531 592.996094 227.382812 592.671875 227.867188 592.347656 C 228.351562 592.023438 228.839844 591.699219 229.484375 591.539062 C 229.972656 591.378906 230.617188 591.214844 231.105469 591.054688 C 232.238281 590.730469 233.53125 590.730469 234.664062 591.054688 C 235.152344 591.214844 235.800781 591.378906 236.285156 591.539062 C 236.769531 591.863281 237.417969 592.023438 237.902344 592.347656 C 238.390625 592.671875 238.875 592.996094 239.199219 593.480469 C 239.523438 593.964844 240.007812 594.289062 240.332031 594.777344 C 240.65625 595.261719 240.980469 595.746094 241.140625 596.394531 C 241.304688 596.878906 241.464844 597.527344 241.625 598.011719 C 241.789062 598.660156 241.789062 599.144531 241.789062 599.792969 C 241.789062 600.441406 241.789062 600.925781 241.625 601.574219 C 241.464844 602.21875 241.304688 602.707031 241.140625 603.191406 C 240.980469 603.675781 240.65625 604.324219 240.332031 604.808594 C 240.007812 605.296875 239.683594 605.78125 239.199219 606.105469 C 237.578125 607.722656 235.3125 608.695312 232.886719 608.695312 Z M 232.886719 608.695312"/><path d="M 117.46875 544.769531 C 116.820312 544.769531 116.335938 544.769531 115.6875 544.605469 C 115.039062 544.445312 114.554688 544.28125 114.070312 544.121094 C 113.582031 543.957031 112.9375 543.636719 112.449219 543.3125 C 111.964844 542.988281 111.480469 542.664062 111.15625 542.179688 C 109.535156 540.558594 108.566406 538.132812 108.566406 535.867188 C 108.566406 533.4375 109.535156 531.171875 111.15625 529.554688 C 111.640625 529.070312 111.964844 528.746094 112.449219 528.421875 C 112.9375 528.097656 113.421875 527.773438 114.070312 527.613281 C 114.554688 527.453125 115.203125 527.289062 115.6875 527.128906 C 116.820312 526.964844 118.117188 526.804688 119.25 527.128906 C 119.898438 527.289062 120.382812 527.453125 120.867188 527.613281 C 121.355469 527.773438 122 528.097656 122.488281 528.421875 C 122.972656 528.746094 123.457031 529.070312 123.78125 529.554688 C 125.402344 531.171875 126.371094 533.601562 126.371094 535.867188 C 126.371094 538.292969 125.402344 540.558594 123.78125 542.179688 C 122.164062 543.796875 119.898438 544.769531 117.46875 544.769531 Z M 117.46875 544.769531"/><path d="M 125.886719 571.792969 C 123.621094 567.425781 125.402344 561.921875 129.769531 559.65625 C 134.140625 557.390625 139.644531 559.171875 141.910156 563.542969 C 144.179688 567.910156 142.398438 573.414062 138.027344 575.679688 C 136.730469 576.328125 135.273438 576.648438 133.980469 576.648438 C 130.742188 576.648438 127.503906 574.871094 125.886719 571.792969 Z M 125.886719 571.792969"/><path d="M 150.328125 608.695312 C 147.902344 608.695312 145.636719 607.722656 144.015625 606.105469 C 143.691406 605.617188 143.207031 605.296875 142.882812 604.808594 C 142.558594 604.324219 142.234375 603.839844 142.074219 603.191406 C 141.910156 602.707031 141.75 602.058594 141.589844 601.574219 C 141.425781 600.925781 141.425781 600.441406 141.425781 599.792969 C 141.425781 599.144531 141.425781 598.660156 141.589844 598.011719 C 141.75 597.363281 141.910156 596.878906 142.074219 596.394531 C 142.234375 595.910156 142.558594 595.261719 142.882812 594.777344 C 143.207031 594.289062 143.53125 593.804688 144.015625 593.480469 C 144.5 592.996094 144.824219 592.671875 145.3125 592.347656 C 145.796875 592.023438 146.28125 591.699219 146.929688 591.539062 C 147.414062 591.378906 148.0625 591.214844 148.546875 591.054688 C 149.683594 590.730469 150.976562 590.730469 152.109375 591.054688 C 152.757812 591.214844 153.242188 591.378906 153.730469 591.539062 C 154.214844 591.863281 154.863281 592.023438 155.347656 592.347656 C 155.832031 592.671875 156.320312 592.996094 156.640625 593.480469 C 156.964844 593.964844 157.453125 594.289062 157.777344 594.777344 C 158.097656 595.261719 158.421875 595.746094 158.585938 596.394531 C 158.746094 597.042969 158.910156 597.527344 159.070312 598.011719 C 159.234375 598.660156 159.234375 599.144531 159.234375 599.792969 C 159.234375 600.441406 159.234375 600.925781 159.070312 601.574219 C 158.910156 602.21875 158.746094 602.707031 158.585938 603.191406 C 158.421875 603.675781 158.097656 604.324219 157.777344 604.808594 C 157.453125 605.296875 157.128906 605.78125 156.640625 606.105469 C 156.15625 606.589844 155.832031 606.914062 155.347656 607.238281 C 154.863281 607.5625 154.375 607.882812 153.730469 608.046875 C 153.242188 608.207031 152.59375 608.371094 152.109375 608.53125 C 151.625 608.53125 150.976562 608.695312 150.328125 608.695312 Z M 150.328125 608.695312"/><path d="M 82.828125 593.804688 C 71.335938 593.804688 71.335938 611.769531 82.828125 611.769531 C 94.320312 611.769531 94.320312 593.804688 82.828125 593.804688 Z M 82.828125 593.804688"/></svg>